%TF.GenerationSoftware,KiCad,Pcbnew,10.0.5-1.fc44*%
%TF.CreationDate,2026-08-16T11:42:40+10:00*%
%TF.ProjectId,servo_controller_555,73657276-6f5f-4636-9f6e-74726f6c6c65,rev?*%
%TF.SameCoordinates,Original*%
%TF.FileFunction,Copper,L2,Bot*%
%TF.FilePolarity,Positive*%
%FSLAX46Y46*%
G04 Gerber Fmt 4.6, Leading zero omitted, Abs format (unit mm)*
G04 Created by KiCad (PCBNEW 10.0.5-1.fc44) date 2026-08-16 11:42:40*
%MOMM*%
%LPD*%
G01*
G04 APERTURE LIST*
G04 Aperture macros list*
%AMRoundRect*
0 Rectangle with rounded corners*
0 $1 Rounding radius*
0 $2 $3 $4 $5 $6 $7 $8 $9 X,Y pos of 4 corners*
0 Add a 4 corners polygon primitive as box body*
4,1,4,$2,$3,$4,$5,$6,$7,$8,$9,$2,$3,0*
0 Add four circle primitives for the rounded corners*
1,1,$1+$1,$2,$3*
1,1,$1+$1,$4,$5*
1,1,$1+$1,$6,$7*
1,1,$1+$1,$8,$9*
0 Add four rect primitives between the rounded corners*
20,1,$1+$1,$2,$3,$4,$5,0*
20,1,$1+$1,$4,$5,$6,$7,0*
20,1,$1+$1,$6,$7,$8,$9,0*
20,1,$1+$1,$8,$9,$2,$3,0*%
G04 Aperture macros list end*
%TA.AperFunction,ComponentPad*%
%ADD10C,1.600000*%
%TD*%
%TA.AperFunction,ComponentPad*%
%ADD11RoundRect,0.250000X0.550000X0.550000X-0.550000X0.550000X-0.550000X-0.550000X0.550000X-0.550000X0*%
%TD*%
%TA.AperFunction,ComponentPad*%
%ADD12R,1.700000X1.700000*%
%TD*%
%TA.AperFunction,ComponentPad*%
%ADD13C,1.700000*%
%TD*%
%TA.AperFunction,ComponentPad*%
%ADD14C,1.800000*%
%TD*%
%TA.AperFunction,ComponentPad*%
%ADD15C,4.400000*%
%TD*%
%TA.AperFunction,ComponentPad*%
%ADD16C,1.400000*%
%TD*%
%TA.AperFunction,ComponentPad*%
%ADD17RoundRect,0.250000X-1.050000X1.050000X-1.050000X-1.050000X1.050000X-1.050000X1.050000X1.050000X0*%
%TD*%
%TA.AperFunction,ComponentPad*%
%ADD18C,2.600000*%
%TD*%
%TA.AperFunction,ComponentPad*%
%ADD19RoundRect,0.250000X-0.550000X-0.550000X0.550000X-0.550000X0.550000X0.550000X-0.550000X0.550000X0*%
%TD*%
%TA.AperFunction,ComponentPad*%
%ADD20R,1.800000X1.800000*%
%TD*%
%TA.AperFunction,ViaPad*%
%ADD21C,0.600000*%
%TD*%
%TA.AperFunction,Conductor*%
%ADD22C,0.400000*%
%TD*%
%TA.AperFunction,Conductor*%
%ADD23C,0.200000*%
%TD*%
G04 APERTURE END LIST*
D10*
%TO.P,C1,1*%
%TO.N,Net-(D1-K)*%
X98380000Y-90580000D03*
%TO.P,C1,2*%
%TO.N,GND*%
X98380000Y-93080000D03*
%TD*%
D11*
%TO.P,U1,1,GND_1*%
%TO.N,GND*%
X95500000Y-93080000D03*
D10*
%TO.P,U1,2,TRIG_2*%
%TO.N,Net-(D1-K)*%
X95500000Y-90540000D03*
%TO.P,U1,3,OUT_3*%
%TO.N,Net-(J1-Pin_3)*%
X95500000Y-88000000D03*
%TO.P,U1,4,~{RST}_4*%
%TO.N,+5V*%
X95500000Y-85460000D03*
%TO.P,U1,5,CONT_5*%
%TO.N,unconnected-(U1-CONT-Pad5)*%
X87880000Y-85460000D03*
%TO.P,U1,6,THRES_6*%
%TO.N,Net-(D1-K)*%
X87880000Y-88000000D03*
%TO.P,U1,7,DISCH_7*%
%TO.N,Net-(D1-A)*%
X87880000Y-90540000D03*
%TO.P,U1,8,VCC_8*%
%TO.N,+5V*%
X87880000Y-93080000D03*
%TD*%
D12*
%TO.P,J1,1,Pin_1_1*%
%TO.N,GND*%
X105000000Y-82460000D03*
D13*
%TO.P,J1,2,Pin_2_2*%
%TO.N,+5V*%
X105000000Y-85000000D03*
%TO.P,J1,3,Pin_3_3*%
%TO.N,Net-(J1-Pin_3)*%
X105000000Y-87540000D03*
%TD*%
D14*
%TO.P,RV1,1,1_1*%
%TO.N,Net-(R2-Pad1)*%
X80600000Y-107500000D03*
%TO.P,RV1,2,2_2*%
%TO.N,+5V*%
X78100000Y-107500000D03*
%TO.P,RV1,3,3_3*%
%TO.N,unconnected-(RV1-Pad3)*%
X75600000Y-107500000D03*
D15*
%TO.P,RV1,MP*%
%TO.N,N/C*%
X73700000Y-100500000D03*
X82500000Y-100500000D03*
%TD*%
D10*
%TO.P,C2,1*%
%TO.N,+5V*%
X90380000Y-97580000D03*
%TO.P,C2,2*%
%TO.N,GND*%
X92880000Y-97580000D03*
%TD*%
D16*
%TO.P,R2,1*%
%TO.N,Net-(R2-Pad1)*%
X83760000Y-75580000D03*
%TO.P,R2,2*%
%TO.N,Net-(D1-A)*%
X91380000Y-75580000D03*
%TD*%
D17*
%TO.P,J2,1,Pin_1_1*%
%TO.N,GND*%
X56000000Y-81500000D03*
D18*
%TO.P,J2,2,Pin_2_2*%
%TO.N,Net-(D4-A)*%
X56000000Y-86500000D03*
%TD*%
D16*
%TO.P,R1,1*%
%TO.N,Net-(D1-K)*%
X83880000Y-78080000D03*
%TO.P,R1,2*%
%TO.N,Net-(D1-A)*%
X91500000Y-78080000D03*
%TD*%
D19*
%TO.P,D1,1,K_1*%
%TO.N,Net-(D1-K)*%
X83880000Y-81080000D03*
D10*
%TO.P,D1,2,A_2*%
%TO.N,Net-(D1-A)*%
X91500000Y-81080000D03*
%TD*%
D16*
%TO.P,R3,1*%
%TO.N,Net-(D2-K)*%
X62000000Y-69380000D03*
%TO.P,R3,2*%
%TO.N,GND*%
X62000000Y-77000000D03*
%TD*%
D20*
%TO.P,D2,1,K_1*%
%TO.N,Net-(D2-K)*%
X66460000Y-72000000D03*
D14*
%TO.P,D2,2,A_2*%
%TO.N,+5V*%
X69000000Y-72000000D03*
%TD*%
D21*
%TO.N,GND*%
X67500000Y-90000000D03*
%TD*%
%TO.N,+5V*%
D22*
X95500000Y-85460000D02*
X87880000Y-93080000D01*
%TO.N,Net-(D1-A)*%
D23*
X87880000Y-90540000D02*
X91500000Y-86920000D01*
X91500000Y-86920000D02*
X91500000Y-81080000D01*
%TO.N,Net-(R2-Pad1)*%
X79700000Y-106600000D02*
X79700000Y-79640000D01*
X79700000Y-79640000D02*
X83760000Y-75580000D01*
X80600000Y-107500000D02*
X79700000Y-106600000D01*
%TD*%
%TA.AperFunction,Conductor*%
%TO.N,GND*%
G36*
X105002702Y-60500617D02*
G01*
X105386773Y-60517386D01*
X105397505Y-60518326D01*
X105775963Y-60568150D01*
X105786601Y-60570025D01*
X106159279Y-60652647D01*
X106169720Y-60655445D01*
X106533765Y-60770227D01*
X106543911Y-60773920D01*
X106896578Y-60920000D01*
X106906369Y-60924566D01*
X107244942Y-61100816D01*
X107254310Y-61106224D01*
X107576244Y-61311318D01*
X107585105Y-61317523D01*
X107887930Y-61549889D01*
X107896217Y-61556843D01*
X108177635Y-61814715D01*
X108185284Y-61822364D01*
X108443156Y-62103782D01*
X108450110Y-62112069D01*
X108682476Y-62414894D01*
X108688681Y-62423755D01*
X108893775Y-62745689D01*
X108899183Y-62755057D01*
X109075430Y-63093623D01*
X109080002Y-63103427D01*
X109226075Y-63456078D01*
X109229775Y-63466244D01*
X109344553Y-63830276D01*
X109347353Y-63840724D01*
X109429972Y-64213390D01*
X109431850Y-64224044D01*
X109481671Y-64602472D01*
X109482614Y-64613248D01*
X109499382Y-64997297D01*
X109499500Y-65002706D01*
X109499500Y-104997293D01*
X109499382Y-105002702D01*
X109482614Y-105386751D01*
X109481671Y-105397527D01*
X109431850Y-105775955D01*
X109429972Y-105786609D01*
X109347353Y-106159275D01*
X109344553Y-106169723D01*
X109229775Y-106533755D01*
X109226075Y-106543921D01*
X109080002Y-106896572D01*
X109075430Y-106906376D01*
X108899183Y-107244942D01*
X108893775Y-107254310D01*
X108688681Y-107576244D01*
X108682476Y-107585105D01*
X108450110Y-107887930D01*
X108443156Y-107896217D01*
X108185284Y-108177635D01*
X108177635Y-108185284D01*
X107896217Y-108443156D01*
X107887930Y-108450110D01*
X107585105Y-108682476D01*
X107576244Y-108688681D01*
X107254310Y-108893775D01*
X107244942Y-108899183D01*
X106906376Y-109075430D01*
X106896572Y-109080002D01*
X106543921Y-109226075D01*
X106533755Y-109229775D01*
X106169723Y-109344553D01*
X106159275Y-109347353D01*
X105786609Y-109429972D01*
X105775955Y-109431850D01*
X105397527Y-109481671D01*
X105386751Y-109482614D01*
X105002703Y-109499382D01*
X104997294Y-109499500D01*
X55002706Y-109499500D01*
X54997297Y-109499382D01*
X54613248Y-109482614D01*
X54602474Y-109481671D01*
X54540007Y-109473447D01*
X54224044Y-109431850D01*
X54213390Y-109429972D01*
X53840724Y-109347353D01*
X53830276Y-109344553D01*
X53466244Y-109229775D01*
X53456078Y-109226075D01*
X53103427Y-109080002D01*
X53093623Y-109075430D01*
X52755057Y-108899183D01*
X52745689Y-108893775D01*
X52423755Y-108688681D01*
X52414894Y-108682476D01*
X52112069Y-108450110D01*
X52103782Y-108443156D01*
X51822364Y-108185284D01*
X51814715Y-108177635D01*
X51556843Y-107896217D01*
X51549889Y-107887930D01*
X51317523Y-107585105D01*
X51311318Y-107576244D01*
X51231867Y-107451531D01*
X51192526Y-107389778D01*
X74199500Y-107389778D01*
X74199500Y-107610221D01*
X74233985Y-107827952D01*
X74302103Y-108037603D01*
X74302104Y-108037606D01*
X74350000Y-108131604D01*
X74377351Y-108185284D01*
X74402187Y-108234025D01*
X74531752Y-108412358D01*
X74531756Y-108412363D01*
X74687636Y-108568243D01*
X74687641Y-108568247D01*
X74843192Y-108681260D01*
X74865978Y-108697815D01*
X74994375Y-108763237D01*
X75062393Y-108797895D01*
X75062396Y-108797896D01*
X75167221Y-108831955D01*
X75272049Y-108866015D01*
X75489778Y-108900500D01*
X75489779Y-108900500D01*
X75710221Y-108900500D01*
X75710222Y-108900500D01*
X75927951Y-108866015D01*
X76137606Y-108797895D01*
X76334022Y-108697815D01*
X76512365Y-108568242D01*
X76668242Y-108412365D01*
X76749682Y-108300270D01*
X76805011Y-108257606D01*
X76874624Y-108251627D01*
X76936420Y-108284232D01*
X76950313Y-108300265D01*
X77031753Y-108412358D01*
X77031758Y-108412365D01*
X77187636Y-108568243D01*
X77187641Y-108568247D01*
X77343192Y-108681260D01*
X77365978Y-108697815D01*
X77494375Y-108763237D01*
X77562393Y-108797895D01*
X77562396Y-108797896D01*
X77667221Y-108831955D01*
X77772049Y-108866015D01*
X77989778Y-108900500D01*
X77989779Y-108900500D01*
X78210221Y-108900500D01*
X78210222Y-108900500D01*
X78427951Y-108866015D01*
X78637606Y-108797895D01*
X78834022Y-108697815D01*
X79012365Y-108568242D01*
X79168242Y-108412365D01*
X79249682Y-108300270D01*
X79305011Y-108257606D01*
X79374624Y-108251627D01*
X79436420Y-108284232D01*
X79450313Y-108300265D01*
X79531753Y-108412358D01*
X79531758Y-108412365D01*
X79687636Y-108568243D01*
X79687641Y-108568247D01*
X79843192Y-108681260D01*
X79865978Y-108697815D01*
X79994375Y-108763237D01*
X80062393Y-108797895D01*
X80062396Y-108797896D01*
X80167221Y-108831955D01*
X80272049Y-108866015D01*
X80489778Y-108900500D01*
X80489779Y-108900500D01*
X80710221Y-108900500D01*
X80710222Y-108900500D01*
X80927951Y-108866015D01*
X81137606Y-108797895D01*
X81334022Y-108697815D01*
X81512365Y-108568242D01*
X81668242Y-108412365D01*
X81797815Y-108234022D01*
X81897895Y-108037606D01*
X81966015Y-107827951D01*
X82000500Y-107610222D01*
X82000500Y-107389778D01*
X81966015Y-107172049D01*
X81897895Y-106962394D01*
X81897895Y-106962393D01*
X81863237Y-106894375D01*
X81797815Y-106765978D01*
X81723162Y-106663226D01*
X81668247Y-106587641D01*
X81668243Y-106587636D01*
X81512363Y-106431756D01*
X81512358Y-106431752D01*
X81334025Y-106302187D01*
X81334024Y-106302186D01*
X81334022Y-106302185D01*
X81234943Y-106251701D01*
X81137606Y-106202104D01*
X81137603Y-106202103D01*
X80927952Y-106133985D01*
X80819086Y-106116742D01*
X80710222Y-106099500D01*
X80489778Y-106099500D01*
X80489776Y-106099500D01*
X80443896Y-106106766D01*
X80374603Y-106097810D01*
X80321151Y-106052813D01*
X80300513Y-105986061D01*
X80300500Y-105984292D01*
X80300500Y-104878711D01*
X103149500Y-104878711D01*
X103149500Y-105121288D01*
X103181161Y-105361785D01*
X103243947Y-105596104D01*
X103322857Y-105786609D01*
X103336776Y-105820212D01*
X103458064Y-106030289D01*
X103458066Y-106030292D01*
X103458067Y-106030293D01*
X103605733Y-106222736D01*
X103605739Y-106222743D01*
X103777256Y-106394260D01*
X103777262Y-106394265D01*
X103969711Y-106541936D01*
X104179788Y-106663224D01*
X104403900Y-106756054D01*
X104638211Y-106818838D01*
X104818586Y-106842584D01*
X104878711Y-106850500D01*
X104878712Y-106850500D01*
X105121289Y-106850500D01*
X105169388Y-106844167D01*
X105361789Y-106818838D01*
X105596100Y-106756054D01*
X105820212Y-106663224D01*
X106030289Y-106541936D01*
X106222738Y-106394265D01*
X106394265Y-106222738D01*
X106541936Y-106030289D01*
X106663224Y-105820212D01*
X106756054Y-105596100D01*
X106818838Y-105361789D01*
X106850500Y-105121288D01*
X106850500Y-104878712D01*
X106818838Y-104638211D01*
X106756054Y-104403900D01*
X106663224Y-104179788D01*
X106541936Y-103969711D01*
X106394265Y-103777262D01*
X106394260Y-103777256D01*
X106222743Y-103605739D01*
X106222736Y-103605733D01*
X106030293Y-103458067D01*
X106030292Y-103458066D01*
X106030289Y-103458064D01*
X105820212Y-103336776D01*
X105820205Y-103336773D01*
X105596104Y-103243947D01*
X105361785Y-103181161D01*
X105121289Y-103149500D01*
X105121288Y-103149500D01*
X104878712Y-103149500D01*
X104878711Y-103149500D01*
X104638214Y-103181161D01*
X104403895Y-103243947D01*
X104179794Y-103336773D01*
X104179785Y-103336777D01*
X103969706Y-103458067D01*
X103777263Y-103605733D01*
X103777256Y-103605739D01*
X103605739Y-103777256D01*
X103605733Y-103777263D01*
X103458067Y-103969706D01*
X103336777Y-104179785D01*
X103336773Y-104179794D01*
X103243947Y-104403895D01*
X103181161Y-104638214D01*
X103149500Y-104878711D01*
X80300500Y-104878711D01*
X80300500Y-102418945D01*
X80320185Y-102351906D01*
X80372989Y-102306151D01*
X80442147Y-102296207D01*
X80505703Y-102325232D01*
X80512181Y-102331264D01*
X80697696Y-102516779D01*
X80934836Y-102705892D01*
X81191659Y-102867265D01*
X81464935Y-102998868D01*
X81679951Y-103074105D01*
X81751216Y-103099042D01*
X81751228Y-103099046D01*
X82046937Y-103166540D01*
X82046946Y-103166541D01*
X82046951Y-103166542D01*
X82247874Y-103189180D01*
X82348337Y-103200499D01*
X82348340Y-103200500D01*
X82348343Y-103200500D01*
X82651660Y-103200500D01*
X82651661Y-103200499D01*
X82823297Y-103181161D01*
X82953048Y-103166542D01*
X82953051Y-103166541D01*
X82953063Y-103166540D01*
X83248772Y-103099046D01*
X83535065Y-102998868D01*
X83808341Y-102867265D01*
X84065164Y-102705892D01*
X84302304Y-102516779D01*
X84516779Y-102302304D01*
X84705892Y-102065164D01*
X84867265Y-101808341D01*
X84998868Y-101535065D01*
X85099046Y-101248772D01*
X85166540Y-100953063D01*
X85200500Y-100651657D01*
X85200500Y-100348343D01*
X85166540Y-100046937D01*
X85099046Y-99751228D01*
X84998868Y-99464935D01*
X84867265Y-99191659D01*
X84705892Y-98934836D01*
X84516779Y-98697696D01*
X84302304Y-98483221D01*
X84065164Y-98294108D01*
X83808341Y-98132735D01*
X83808338Y-98132733D01*
X83535068Y-98001133D01*
X83248783Y-97900957D01*
X83248771Y-97900953D01*
X83020556Y-97848864D01*
X82953063Y-97833460D01*
X82953060Y-97833459D01*
X82953048Y-97833457D01*
X82651663Y-97799500D01*
X82651657Y-97799500D01*
X82348343Y-97799500D01*
X82348336Y-97799500D01*
X82046951Y-97833457D01*
X82046937Y-97833460D01*
X81751228Y-97900953D01*
X81751216Y-97900957D01*
X81464931Y-98001133D01*
X81191661Y-98132733D01*
X80934837Y-98294107D01*
X80697696Y-98483220D01*
X80512181Y-98668736D01*
X80450858Y-98702221D01*
X80381166Y-98697237D01*
X80325233Y-98655365D01*
X80300816Y-98589901D01*
X80300500Y-98581055D01*
X80300500Y-97477648D01*
X89079500Y-97477648D01*
X89079500Y-97682351D01*
X89111522Y-97884534D01*
X89174781Y-98079223D01*
X89217248Y-98162567D01*
X89267585Y-98261359D01*
X89267715Y-98261613D01*
X89388028Y-98427213D01*
X89532786Y-98571971D01*
X89687749Y-98684556D01*
X89698390Y-98692287D01*
X89814607Y-98751503D01*
X89880776Y-98785218D01*
X89880778Y-98785218D01*
X89880781Y-98785220D01*
X89985137Y-98819127D01*
X90075465Y-98848477D01*
X90176557Y-98864488D01*
X90277648Y-98880500D01*
X90277649Y-98880500D01*
X90482351Y-98880500D01*
X90482352Y-98880500D01*
X90684534Y-98848477D01*
X90879219Y-98785220D01*
X91061610Y-98692287D01*
X91154590Y-98624732D01*
X91227213Y-98571971D01*
X91227215Y-98571968D01*
X91227219Y-98571966D01*
X91371966Y-98427219D01*
X91371968Y-98427215D01*
X91371971Y-98427213D01*
X91492286Y-98261611D01*
X91492415Y-98261359D01*
X91519795Y-98207621D01*
X91567769Y-98156826D01*
X91635589Y-98140030D01*
X91701725Y-98162567D01*
X91740765Y-98207621D01*
X91768141Y-98261350D01*
X91768147Y-98261359D01*
X91800523Y-98305921D01*
X91800524Y-98305922D01*
X92480000Y-97626446D01*
X92480000Y-97632661D01*
X92507259Y-97734394D01*
X92559920Y-97825606D01*
X92634394Y-97900080D01*
X92725606Y-97952741D01*
X92827339Y-97980000D01*
X92833553Y-97980000D01*
X92154076Y-98659474D01*
X92198650Y-98691859D01*
X92380968Y-98784755D01*
X92575582Y-98847990D01*
X92777683Y-98880000D01*
X92982317Y-98880000D01*
X93184417Y-98847990D01*
X93379031Y-98784755D01*
X93561349Y-98691859D01*
X93605921Y-98659474D01*
X92926447Y-97980000D01*
X92932661Y-97980000D01*
X93034394Y-97952741D01*
X93125606Y-97900080D01*
X93200080Y-97825606D01*
X93252741Y-97734394D01*
X93280000Y-97632661D01*
X93280000Y-97626447D01*
X93959474Y-98305921D01*
X93991859Y-98261349D01*
X94084755Y-98079031D01*
X94147990Y-97884417D01*
X94180000Y-97682317D01*
X94180000Y-97477682D01*
X94147990Y-97275582D01*
X94084755Y-97080968D01*
X93991859Y-96898650D01*
X93959474Y-96854077D01*
X93959474Y-96854076D01*
X93280000Y-97533551D01*
X93280000Y-97527339D01*
X93252741Y-97425606D01*
X93200080Y-97334394D01*
X93125606Y-97259920D01*
X93034394Y-97207259D01*
X92932661Y-97180000D01*
X92926446Y-97180000D01*
X93605922Y-96500524D01*
X93605921Y-96500523D01*
X93561359Y-96468147D01*
X93561350Y-96468141D01*
X93379031Y-96375244D01*
X93184417Y-96312009D01*
X92982317Y-96280000D01*
X92777683Y-96280000D01*
X92575582Y-96312009D01*
X92380968Y-96375244D01*
X92198644Y-96468143D01*
X92154077Y-96500523D01*
X92154077Y-96500524D01*
X92833554Y-97180000D01*
X92827339Y-97180000D01*
X92725606Y-97207259D01*
X92634394Y-97259920D01*
X92559920Y-97334394D01*
X92507259Y-97425606D01*
X92480000Y-97527339D01*
X92480000Y-97533553D01*
X91800524Y-96854077D01*
X91800523Y-96854077D01*
X91768143Y-96898644D01*
X91740765Y-96952378D01*
X91692790Y-97003174D01*
X91624969Y-97019969D01*
X91558834Y-96997431D01*
X91519795Y-96952378D01*
X91492284Y-96898385D01*
X91371971Y-96732786D01*
X91227213Y-96588028D01*
X91061613Y-96467715D01*
X91061612Y-96467714D01*
X91061610Y-96467713D01*
X91004653Y-96438691D01*
X90879223Y-96374781D01*
X90684534Y-96311522D01*
X90509995Y-96283878D01*
X90482352Y-96279500D01*
X90277648Y-96279500D01*
X90253329Y-96283351D01*
X90075465Y-96311522D01*
X89880776Y-96374781D01*
X89698386Y-96467715D01*
X89532786Y-96588028D01*
X89388028Y-96732786D01*
X89267715Y-96898386D01*
X89174781Y-97080776D01*
X89111522Y-97275465D01*
X89079500Y-97477648D01*
X80300500Y-97477648D01*
X80300500Y-85357648D01*
X86579500Y-85357648D01*
X86579500Y-85562351D01*
X86611522Y-85764534D01*
X86674781Y-85959223D01*
X86767715Y-86141613D01*
X86888028Y-86307213D01*
X87032786Y-86451971D01*
X87112515Y-86509896D01*
X87198390Y-86572287D01*
X87288115Y-86618004D01*
X87291080Y-86619515D01*
X87341876Y-86667490D01*
X87358671Y-86735311D01*
X87336134Y-86801446D01*
X87291080Y-86840485D01*
X87198386Y-86887715D01*
X87032786Y-87008028D01*
X86888028Y-87152786D01*
X86767715Y-87318386D01*
X86674781Y-87500776D01*
X86611522Y-87695465D01*
X86579500Y-87897648D01*
X86579500Y-88102351D01*
X86611522Y-88304534D01*
X86674781Y-88499223D01*
X86767715Y-88681613D01*
X86888028Y-88847213D01*
X87032786Y-88991971D01*
X87187749Y-89104556D01*
X87198390Y-89112287D01*
X87289840Y-89158883D01*
X87291080Y-89159515D01*
X87341876Y-89207490D01*
X87358671Y-89275311D01*
X87336134Y-89341446D01*
X87291080Y-89380485D01*
X87198386Y-89427715D01*
X87032786Y-89548028D01*
X86888028Y-89692786D01*
X86767715Y-89858386D01*
X86674781Y-90040776D01*
X86611522Y-90235465D01*
X86579500Y-90437648D01*
X86579500Y-90642351D01*
X86611522Y-90844534D01*
X86674781Y-91039223D01*
X86767715Y-91221613D01*
X86888028Y-91387213D01*
X87032786Y-91531971D01*
X87187749Y-91644556D01*
X87198390Y-91652287D01*
X87289840Y-91698883D01*
X87291080Y-91699515D01*
X87341876Y-91747490D01*
X87358671Y-91815311D01*
X87336134Y-91881446D01*
X87291080Y-91920485D01*
X87198386Y-91967715D01*
X87032786Y-92088028D01*
X86888028Y-92232786D01*
X86767715Y-92398386D01*
X86674781Y-92580776D01*
X86611522Y-92775465D01*
X86579500Y-92977648D01*
X86579500Y-93182351D01*
X86611522Y-93384534D01*
X86674781Y-93579223D01*
X86726117Y-93679973D01*
X86767585Y-93761359D01*
X86767715Y-93761613D01*
X86888028Y-93927213D01*
X87032786Y-94071971D01*
X87153226Y-94159474D01*
X87198390Y-94192287D01*
X87314607Y-94251503D01*
X87380776Y-94285218D01*
X87380778Y-94285218D01*
X87380781Y-94285220D01*
X87470459Y-94314358D01*
X87575465Y-94348477D01*
X87676557Y-94364488D01*
X87777648Y-94380500D01*
X87777649Y-94380500D01*
X87982351Y-94380500D01*
X87982352Y-94380500D01*
X88184534Y-94348477D01*
X88379219Y-94285220D01*
X88561610Y-94192287D01*
X88654590Y-94124732D01*
X88727213Y-94071971D01*
X88727215Y-94071968D01*
X88727219Y-94071966D01*
X88871966Y-93927219D01*
X88871968Y-93927215D01*
X88871971Y-93927213D01*
X88924732Y-93854590D01*
X88992287Y-93761610D01*
X89085220Y-93579219D01*
X89148477Y-93384534D01*
X89148496Y-93384417D01*
X89168322Y-93259240D01*
X89180500Y-93182351D01*
X89180500Y-92982215D01*
X89180500Y-92977648D01*
X89161942Y-92860487D01*
X89161902Y-92860219D01*
X89166532Y-92825955D01*
X89170967Y-92791636D01*
X89171220Y-92791265D01*
X89171259Y-92790978D01*
X89172059Y-92790037D01*
X89196802Y-92753853D01*
X93987819Y-87962835D01*
X94049142Y-87929351D01*
X94118834Y-87934335D01*
X94174767Y-87976207D01*
X94199184Y-88041671D01*
X94199500Y-88050517D01*
X94199500Y-88102351D01*
X94231522Y-88304534D01*
X94294781Y-88499223D01*
X94387715Y-88681613D01*
X94508028Y-88847213D01*
X94652786Y-88991971D01*
X94807749Y-89104556D01*
X94818390Y-89112287D01*
X94909840Y-89158883D01*
X94911080Y-89159515D01*
X94961876Y-89207490D01*
X94978671Y-89275311D01*
X94956134Y-89341446D01*
X94911080Y-89380485D01*
X94818386Y-89427715D01*
X94652786Y-89548028D01*
X94508028Y-89692786D01*
X94387715Y-89858386D01*
X94294781Y-90040776D01*
X94231522Y-90235465D01*
X94199500Y-90437648D01*
X94199500Y-90642351D01*
X94231522Y-90844534D01*
X94294781Y-91039223D01*
X94387715Y-91221613D01*
X94508028Y-91387213D01*
X94652782Y-91531967D01*
X94652787Y-91531971D01*
X94746948Y-91600383D01*
X94789614Y-91655713D01*
X94795593Y-91725326D01*
X94762988Y-91787121D01*
X94713068Y-91818407D01*
X94630878Y-91845642D01*
X94630875Y-91845643D01*
X94481654Y-91937684D01*
X94357684Y-92061654D01*
X94265643Y-92210875D01*
X94265641Y-92210880D01*
X94210494Y-92377302D01*
X94210493Y-92377309D01*
X94200000Y-92480013D01*
X94200000Y-92830000D01*
X95184314Y-92830000D01*
X95179920Y-92834394D01*
X95127259Y-92925606D01*
X95100000Y-93027339D01*
X95100000Y-93132661D01*
X95127259Y-93234394D01*
X95179920Y-93325606D01*
X95184314Y-93330000D01*
X94200001Y-93330000D01*
X94200001Y-93679986D01*
X94210494Y-93782697D01*
X94265641Y-93949119D01*
X94265643Y-93949124D01*
X94357684Y-94098345D01*
X94481654Y-94222315D01*
X94630875Y-94314356D01*
X94630880Y-94314358D01*
X94797302Y-94369505D01*
X94797309Y-94369506D01*
X94900019Y-94379999D01*
X95249999Y-94379999D01*
X95250000Y-94379998D01*
X95250000Y-93395686D01*
X95254394Y-93400080D01*
X95345606Y-93452741D01*
X95447339Y-93480000D01*
X95552661Y-93480000D01*
X95654394Y-93452741D01*
X95745606Y-93400080D01*
X95750000Y-93395686D01*
X95750000Y-94379999D01*
X96099972Y-94379999D01*
X96099986Y-94379998D01*
X96202697Y-94369505D01*
X96369119Y-94314358D01*
X96369124Y-94314356D01*
X96518345Y-94222315D01*
X96642315Y-94098345D01*
X96673913Y-94047118D01*
X96734356Y-93949124D01*
X96734358Y-93949119D01*
X96789505Y-93782697D01*
X96789506Y-93782690D01*
X96799999Y-93679986D01*
X96800000Y-93679973D01*
X96800000Y-93330000D01*
X95815686Y-93330000D01*
X95820080Y-93325606D01*
X95872741Y-93234394D01*
X95900000Y-93132661D01*
X95900000Y-93027339D01*
X95872741Y-92925606D01*
X95820080Y-92834394D01*
X95815686Y-92830000D01*
X96799999Y-92830000D01*
X96799999Y-92480028D01*
X96799998Y-92480013D01*
X96789505Y-92377302D01*
X96734358Y-92210880D01*
X96734356Y-92210875D01*
X96642315Y-92061654D01*
X96518345Y-91937684D01*
X96369124Y-91845643D01*
X96369119Y-91845641D01*
X96286931Y-91818407D01*
X96229486Y-91778634D01*
X96202663Y-91714119D01*
X96214978Y-91645343D01*
X96253049Y-91600383D01*
X96347219Y-91531966D01*
X96491966Y-91387219D01*
X96491968Y-91387215D01*
X96491971Y-91387213D01*
X96583223Y-91261613D01*
X96612287Y-91221610D01*
X96705220Y-91039219D01*
X96768477Y-90844534D01*
X96800500Y-90642352D01*
X96800500Y-90477648D01*
X97079500Y-90477648D01*
X97079500Y-90682351D01*
X97111522Y-90884534D01*
X97174781Y-91079223D01*
X97238691Y-91204653D01*
X97247333Y-91221613D01*
X97267715Y-91261613D01*
X97388028Y-91427213D01*
X97532786Y-91571971D01*
X97698385Y-91692284D01*
X97698387Y-91692285D01*
X97698390Y-91692287D01*
X97752378Y-91719795D01*
X97803174Y-91767769D01*
X97819969Y-91835590D01*
X97797432Y-91901725D01*
X97752378Y-91940765D01*
X97698644Y-91968143D01*
X97654077Y-92000523D01*
X97654077Y-92000524D01*
X98333554Y-92680000D01*
X98327339Y-92680000D01*
X98225606Y-92707259D01*
X98134394Y-92759920D01*
X98059920Y-92834394D01*
X98007259Y-92925606D01*
X97980000Y-93027339D01*
X97980000Y-93033553D01*
X97300524Y-92354077D01*
X97300523Y-92354077D01*
X97268143Y-92398644D01*
X97175244Y-92580968D01*
X97112009Y-92775582D01*
X97080000Y-92977682D01*
X97080000Y-93182317D01*
X97112009Y-93384417D01*
X97175244Y-93579031D01*
X97268141Y-93761350D01*
X97268147Y-93761359D01*
X97300523Y-93805921D01*
X97300524Y-93805922D01*
X97980000Y-93126446D01*
X97980000Y-93132661D01*
X98007259Y-93234394D01*
X98059920Y-93325606D01*
X98134394Y-93400080D01*
X98225606Y-93452741D01*
X98327339Y-93480000D01*
X98333553Y-93480000D01*
X97654076Y-94159474D01*
X97698650Y-94191859D01*
X97880968Y-94284755D01*
X98075582Y-94347990D01*
X98277683Y-94380000D01*
X98482317Y-94380000D01*
X98684417Y-94347990D01*
X98879031Y-94284755D01*
X99061349Y-94191859D01*
X99105921Y-94159474D01*
X98426447Y-93480000D01*
X98432661Y-93480000D01*
X98534394Y-93452741D01*
X98625606Y-93400080D01*
X98700080Y-93325606D01*
X98752741Y-93234394D01*
X98780000Y-93132661D01*
X98780000Y-93126447D01*
X99459474Y-93805921D01*
X99491859Y-93761349D01*
X99584755Y-93579031D01*
X99647990Y-93384417D01*
X99680000Y-93182317D01*
X99680000Y-92977682D01*
X99647990Y-92775582D01*
X99584755Y-92580968D01*
X99491859Y-92398650D01*
X99459474Y-92354077D01*
X99459474Y-92354076D01*
X98780000Y-93033551D01*
X98780000Y-93027339D01*
X98752741Y-92925606D01*
X98700080Y-92834394D01*
X98625606Y-92759920D01*
X98534394Y-92707259D01*
X98432661Y-92680000D01*
X98426446Y-92680000D01*
X99105922Y-92000524D01*
X99105921Y-92000523D01*
X99061359Y-91968147D01*
X99061350Y-91968141D01*
X99007621Y-91940765D01*
X98956825Y-91892791D01*
X98940030Y-91824970D01*
X98962567Y-91758835D01*
X99007621Y-91719795D01*
X99061610Y-91692287D01*
X99116670Y-91652284D01*
X99227213Y-91571971D01*
X99227215Y-91571968D01*
X99227219Y-91571966D01*
X99371966Y-91427219D01*
X99371968Y-91427215D01*
X99371971Y-91427213D01*
X99424732Y-91354590D01*
X99492287Y-91261610D01*
X99585220Y-91079219D01*
X99648477Y-90884534D01*
X99680500Y-90682352D01*
X99680500Y-90477648D01*
X99648477Y-90275466D01*
X99585220Y-90080781D01*
X99585218Y-90080778D01*
X99585218Y-90080776D01*
X99551503Y-90014607D01*
X99492287Y-89898390D01*
X99463223Y-89858386D01*
X99371971Y-89732786D01*
X99227213Y-89588028D01*
X99061613Y-89467715D01*
X99061612Y-89467714D01*
X99061610Y-89467713D01*
X98983106Y-89427713D01*
X98879223Y-89374781D01*
X98684534Y-89311522D01*
X98509995Y-89283878D01*
X98482352Y-89279500D01*
X98277648Y-89279500D01*
X98253329Y-89283351D01*
X98075465Y-89311522D01*
X97880776Y-89374781D01*
X97698386Y-89467715D01*
X97532786Y-89588028D01*
X97388028Y-89732786D01*
X97267715Y-89898386D01*
X97174781Y-90080776D01*
X97111522Y-90275465D01*
X97079500Y-90477648D01*
X96800500Y-90477648D01*
X96800500Y-90437648D01*
X96768477Y-90235465D01*
X96739127Y-90145137D01*
X96705220Y-90040781D01*
X96705218Y-90040778D01*
X96705218Y-90040776D01*
X96671503Y-89974607D01*
X96612287Y-89858390D01*
X96604556Y-89847749D01*
X96491971Y-89692786D01*
X96347213Y-89548028D01*
X96181614Y-89427715D01*
X96175006Y-89424348D01*
X96088917Y-89380483D01*
X96038123Y-89332511D01*
X96021328Y-89264690D01*
X96043865Y-89198555D01*
X96088917Y-89159516D01*
X96181610Y-89112287D01*
X96202770Y-89096913D01*
X96347213Y-88991971D01*
X96347215Y-88991968D01*
X96347219Y-88991966D01*
X96491966Y-88847219D01*
X96491968Y-88847215D01*
X96491971Y-88847213D01*
X96544732Y-88774590D01*
X96612287Y-88681610D01*
X96705220Y-88499219D01*
X96768477Y-88304534D01*
X96800500Y-88102352D01*
X96800500Y-87897648D01*
X96793997Y-87856592D01*
X96768477Y-87695465D01*
X96739127Y-87605137D01*
X96705220Y-87500781D01*
X96705218Y-87500778D01*
X96705218Y-87500776D01*
X96671047Y-87433713D01*
X96612287Y-87318390D01*
X96590728Y-87288716D01*
X96491971Y-87152786D01*
X96347213Y-87008028D01*
X96181614Y-86887715D01*
X96175006Y-86884348D01*
X96088917Y-86840483D01*
X96038123Y-86792511D01*
X96021328Y-86724690D01*
X96043865Y-86658555D01*
X96088917Y-86619516D01*
X96181610Y-86572287D01*
X96267493Y-86509890D01*
X96347213Y-86451971D01*
X96347215Y-86451968D01*
X96347219Y-86451966D01*
X96491966Y-86307219D01*
X96491968Y-86307215D01*
X96491971Y-86307213D01*
X96564422Y-86207491D01*
X96612287Y-86141610D01*
X96705220Y-85959219D01*
X96768477Y-85764534D01*
X96800500Y-85562352D01*
X96800500Y-85357648D01*
X96768477Y-85155466D01*
X96764560Y-85143412D01*
X96752497Y-85106286D01*
X96705220Y-84960781D01*
X96701645Y-84953765D01*
X96697248Y-84945134D01*
X96671047Y-84893713D01*
X103649500Y-84893713D01*
X103649500Y-85106287D01*
X103682754Y-85316243D01*
X103741664Y-85497550D01*
X103748444Y-85518414D01*
X103844951Y-85707820D01*
X103969890Y-85879786D01*
X104120213Y-86030109D01*
X104292182Y-86155050D01*
X104300946Y-86159516D01*
X104351742Y-86207491D01*
X104368536Y-86275312D01*
X104345998Y-86341447D01*
X104300946Y-86380484D01*
X104292182Y-86384949D01*
X104120213Y-86509890D01*
X103969890Y-86660213D01*
X103844951Y-86832179D01*
X103748444Y-87021585D01*
X103682753Y-87223760D01*
X103672465Y-87288716D01*
X103649500Y-87433713D01*
X103649500Y-87646287D01*
X103682754Y-87856243D01*
X103743003Y-88041671D01*
X103748444Y-88058414D01*
X103844951Y-88247820D01*
X103969890Y-88419786D01*
X104120213Y-88570109D01*
X104292179Y-88695048D01*
X104292181Y-88695049D01*
X104292184Y-88695051D01*
X104481588Y-88791557D01*
X104683757Y-88857246D01*
X104893713Y-88890500D01*
X104893714Y-88890500D01*
X105106286Y-88890500D01*
X105106287Y-88890500D01*
X105316243Y-88857246D01*
X105518412Y-88791557D01*
X105707816Y-88695051D01*
X105729789Y-88679086D01*
X105879786Y-88570109D01*
X105879788Y-88570106D01*
X105879792Y-88570104D01*
X106030104Y-88419792D01*
X106030106Y-88419788D01*
X106030109Y-88419786D01*
X106155048Y-88247820D01*
X106155047Y-88247820D01*
X106155051Y-88247816D01*
X106251557Y-88058412D01*
X106317246Y-87856243D01*
X106350500Y-87646287D01*
X106350500Y-87433713D01*
X106317246Y-87223757D01*
X106251557Y-87021588D01*
X106155051Y-86832184D01*
X106155049Y-86832181D01*
X106155048Y-86832179D01*
X106030109Y-86660213D01*
X105879786Y-86509890D01*
X105707820Y-86384951D01*
X105702018Y-86381995D01*
X105699054Y-86380485D01*
X105648259Y-86332512D01*
X105631463Y-86264692D01*
X105653999Y-86198556D01*
X105699054Y-86159515D01*
X105707816Y-86155051D01*
X105729789Y-86139086D01*
X105879786Y-86030109D01*
X105879788Y-86030106D01*
X105879792Y-86030104D01*
X106030104Y-85879792D01*
X106030106Y-85879788D01*
X106030109Y-85879786D01*
X106155048Y-85707820D01*
X106155047Y-85707820D01*
X106155051Y-85707816D01*
X106251557Y-85518412D01*
X106317246Y-85316243D01*
X106350500Y-85106287D01*
X106350500Y-84893713D01*
X106317246Y-84683757D01*
X106251557Y-84481588D01*
X106155051Y-84292184D01*
X106155049Y-84292181D01*
X106155048Y-84292179D01*
X106030109Y-84120213D01*
X105916181Y-84006285D01*
X105882696Y-83944962D01*
X105887680Y-83875270D01*
X105929552Y-83819337D01*
X105960529Y-83802422D01*
X106092086Y-83753354D01*
X106092093Y-83753350D01*
X106207187Y-83667190D01*
X106207190Y-83667187D01*
X106293350Y-83552093D01*
X106293354Y-83552086D01*
X106343596Y-83417379D01*
X106343598Y-83417372D01*
X106349999Y-83357844D01*
X106350000Y-83357827D01*
X106350000Y-82710000D01*
X105433012Y-82710000D01*
X105465925Y-82652993D01*
X105500000Y-82525826D01*
X105500000Y-82394174D01*
X105465925Y-82267007D01*
X105433012Y-82210000D01*
X106350000Y-82210000D01*
X106350000Y-81562172D01*
X106349999Y-81562155D01*
X106343598Y-81502627D01*
X106343596Y-81502620D01*
X106293354Y-81367913D01*
X106293350Y-81367906D01*
X106207190Y-81252812D01*
X106207187Y-81252809D01*
X106092093Y-81166649D01*
X106092086Y-81166645D01*
X105957379Y-81116403D01*
X105957372Y-81116401D01*
X105897844Y-81110000D01*
X105250000Y-81110000D01*
X105250000Y-82026988D01*
X105192993Y-81994075D01*
X105065826Y-81960000D01*
X104934174Y-81960000D01*
X104807007Y-81994075D01*
X104750000Y-82026988D01*
X104750000Y-81110000D01*
X104102155Y-81110000D01*
X104042627Y-81116401D01*
X104042620Y-81116403D01*
X103907913Y-81166645D01*
X103907906Y-81166649D01*
X103792812Y-81252809D01*
X103792809Y-81252812D01*
X103706649Y-81367906D01*
X103706645Y-81367913D01*
X103656403Y-81502620D01*
X103656401Y-81502627D01*
X103650000Y-81562155D01*
X103650000Y-82210000D01*
X104566988Y-82210000D01*
X104534075Y-82267007D01*
X104500000Y-82394174D01*
X104500000Y-82525826D01*
X104534075Y-82652993D01*
X104566988Y-82710000D01*
X103650000Y-82710000D01*
X103650000Y-83357844D01*
X103656401Y-83417372D01*
X103656403Y-83417379D01*
X103706645Y-83552086D01*
X103706649Y-83552093D01*
X103792809Y-83667187D01*
X103792812Y-83667190D01*
X103907906Y-83753350D01*
X103907913Y-83753354D01*
X104039470Y-83802422D01*
X104095404Y-83844293D01*
X104119821Y-83909758D01*
X104104969Y-83978031D01*
X104083819Y-84006285D01*
X103969889Y-84120215D01*
X103844951Y-84292179D01*
X103748444Y-84481585D01*
X103682753Y-84683760D01*
X103680260Y-84699501D01*
X103649500Y-84893713D01*
X96671047Y-84893713D01*
X96664933Y-84881714D01*
X96612287Y-84778390D01*
X96577353Y-84730307D01*
X96491971Y-84612786D01*
X96347213Y-84468028D01*
X96181613Y-84347715D01*
X96181612Y-84347714D01*
X96181610Y-84347713D01*
X96124653Y-84318691D01*
X95999223Y-84254781D01*
X95804534Y-84191522D01*
X95629995Y-84163878D01*
X95602352Y-84159500D01*
X95397648Y-84159500D01*
X95373329Y-84163351D01*
X95195465Y-84191522D01*
X95000776Y-84254781D01*
X94818386Y-84347715D01*
X94652786Y-84468028D01*
X94508028Y-84612786D01*
X94387715Y-84778386D01*
X94294781Y-84960776D01*
X94231522Y-85155465D01*
X94199500Y-85357648D01*
X94199500Y-85562351D01*
X94217986Y-85679069D01*
X94209031Y-85748363D01*
X94183194Y-85786148D01*
X89392181Y-90577162D01*
X89330858Y-90610647D01*
X89261166Y-90605663D01*
X89205233Y-90563791D01*
X89180816Y-90498327D01*
X89180500Y-90489481D01*
X89180500Y-90437648D01*
X89148478Y-90235472D01*
X89148477Y-90235471D01*
X89148477Y-90235466D01*
X89143825Y-90221151D01*
X89141832Y-90151312D01*
X89174075Y-90095158D01*
X91868713Y-87400521D01*
X91868716Y-87400520D01*
X91980520Y-87288716D01*
X92030639Y-87201904D01*
X92059577Y-87151785D01*
X92100500Y-86999057D01*
X92100500Y-86840943D01*
X92100500Y-82309601D01*
X92120185Y-82242562D01*
X92168206Y-82199116D01*
X92181610Y-82192287D01*
X92347219Y-82071966D01*
X92491966Y-81927219D01*
X92491968Y-81927215D01*
X92491971Y-81927213D01*
X92544732Y-81854590D01*
X92612287Y-81761610D01*
X92705220Y-81579219D01*
X92768477Y-81384534D01*
X92800500Y-81182352D01*
X92800500Y-80977648D01*
X92768477Y-80775466D01*
X92705220Y-80580781D01*
X92705218Y-80580778D01*
X92705218Y-80580776D01*
X92653865Y-80479991D01*
X92612287Y-80398390D01*
X92596892Y-80377200D01*
X92491971Y-80232786D01*
X92347213Y-80088028D01*
X92181613Y-79967715D01*
X92181612Y-79967714D01*
X92181610Y-79967713D01*
X92121898Y-79937288D01*
X91999223Y-79874781D01*
X91804534Y-79811522D01*
X91629995Y-79783878D01*
X91602352Y-79779500D01*
X91397648Y-79779500D01*
X91373329Y-79783351D01*
X91195465Y-79811522D01*
X91000776Y-79874781D01*
X90818386Y-79967715D01*
X90652786Y-80088028D01*
X90508028Y-80232786D01*
X90387715Y-80398386D01*
X90294781Y-80580776D01*
X90231522Y-80775465D01*
X90199500Y-80977648D01*
X90199500Y-81182351D01*
X90231522Y-81384534D01*
X90294781Y-81579223D01*
X90346135Y-81680009D01*
X90381797Y-81750000D01*
X90387715Y-81761613D01*
X90508028Y-81927213D01*
X90508034Y-81927219D01*
X90652781Y-82071966D01*
X90818390Y-82192287D01*
X90831793Y-82199116D01*
X90882589Y-82247088D01*
X90899500Y-82309601D01*
X90899500Y-86619902D01*
X90879815Y-86686941D01*
X90863181Y-86707583D01*
X89392181Y-88178583D01*
X89330858Y-88212068D01*
X89261166Y-88207084D01*
X89205233Y-88165212D01*
X89180816Y-88099748D01*
X89180500Y-88090902D01*
X89180500Y-87897648D01*
X89148477Y-87695465D01*
X89119127Y-87605137D01*
X89085220Y-87500781D01*
X89085218Y-87500778D01*
X89085218Y-87500776D01*
X89051047Y-87433713D01*
X88992287Y-87318390D01*
X88970728Y-87288716D01*
X88871971Y-87152786D01*
X88727213Y-87008028D01*
X88561614Y-86887715D01*
X88555006Y-86884348D01*
X88468917Y-86840483D01*
X88418123Y-86792511D01*
X88401328Y-86724690D01*
X88423865Y-86658555D01*
X88468917Y-86619516D01*
X88561610Y-86572287D01*
X88647493Y-86509890D01*
X88727213Y-86451971D01*
X88727215Y-86451968D01*
X88727219Y-86451966D01*
X88871966Y-86307219D01*
X88871968Y-86307215D01*
X88871971Y-86307213D01*
X88944422Y-86207491D01*
X88992287Y-86141610D01*
X89085220Y-85959219D01*
X89148477Y-85764534D01*
X89180500Y-85562352D01*
X89180500Y-85357648D01*
X89148477Y-85155466D01*
X89144560Y-85143412D01*
X89085218Y-84960776D01*
X89044933Y-84881714D01*
X88992287Y-84778390D01*
X88957353Y-84730307D01*
X88871971Y-84612786D01*
X88727213Y-84468028D01*
X88561613Y-84347715D01*
X88561612Y-84347714D01*
X88561610Y-84347713D01*
X88504653Y-84318691D01*
X88379223Y-84254781D01*
X88184534Y-84191522D01*
X88009995Y-84163878D01*
X87982352Y-84159500D01*
X87777648Y-84159500D01*
X87753329Y-84163351D01*
X87575465Y-84191522D01*
X87380776Y-84254781D01*
X87198386Y-84347715D01*
X87032786Y-84468028D01*
X86888028Y-84612786D01*
X86767715Y-84778386D01*
X86674781Y-84960776D01*
X86611522Y-85155465D01*
X86579500Y-85357648D01*
X80300500Y-85357648D01*
X80300500Y-80479983D01*
X82579500Y-80479983D01*
X82579500Y-81680001D01*
X82579501Y-81680018D01*
X82590000Y-81782796D01*
X82590001Y-81782799D01*
X82633594Y-81914351D01*
X82645186Y-81949334D01*
X82737288Y-82098656D01*
X82861344Y-82222712D01*
X83010666Y-82314814D01*
X83177203Y-82369999D01*
X83279991Y-82380500D01*
X84480008Y-82380499D01*
X84582797Y-82369999D01*
X84749334Y-82314814D01*
X84898656Y-82222712D01*
X85022712Y-82098656D01*
X85114814Y-81949334D01*
X85169999Y-81782797D01*
X85180500Y-81680009D01*
X85180499Y-80479992D01*
X85169999Y-80377203D01*
X85114814Y-80210666D01*
X85022712Y-80061344D01*
X84898656Y-79937288D01*
X84749334Y-79845186D01*
X84582797Y-79790001D01*
X84582795Y-79790000D01*
X84480010Y-79779500D01*
X83279998Y-79779500D01*
X83279981Y-79779501D01*
X83177203Y-79790000D01*
X83177200Y-79790001D01*
X83010668Y-79845185D01*
X83010663Y-79845187D01*
X82861342Y-79937289D01*
X82737289Y-80061342D01*
X82645187Y-80210663D01*
X82645186Y-80210666D01*
X82590001Y-80377203D01*
X82590001Y-80377204D01*
X82590000Y-80377204D01*
X82579500Y-80479983D01*
X80300500Y-80479983D01*
X80300500Y-79940096D01*
X80320185Y-79873057D01*
X80336814Y-79852420D01*
X82499185Y-77690048D01*
X82560506Y-77656565D01*
X82630198Y-77661549D01*
X82686131Y-77703421D01*
X82710548Y-77768885D01*
X82709337Y-77797129D01*
X82679500Y-77985513D01*
X82679500Y-78174486D01*
X82709059Y-78361118D01*
X82767454Y-78540836D01*
X82853240Y-78709199D01*
X82964310Y-78862073D01*
X83097927Y-78995690D01*
X83250801Y-79106760D01*
X83330347Y-79147290D01*
X83419163Y-79192545D01*
X83419165Y-79192545D01*
X83419168Y-79192547D01*
X83515497Y-79223846D01*
X83598881Y-79250940D01*
X83785514Y-79280500D01*
X83785519Y-79280500D01*
X83974486Y-79280500D01*
X84161118Y-79250940D01*
X84340832Y-79192547D01*
X84509199Y-79106760D01*
X84662073Y-78995690D01*
X84795690Y-78862073D01*
X84906760Y-78709199D01*
X84992547Y-78540832D01*
X85050940Y-78361118D01*
X85080500Y-78174486D01*
X85080500Y-77985513D01*
X85050940Y-77798881D01*
X85015578Y-77690050D01*
X84992547Y-77619168D01*
X84992545Y-77619165D01*
X84992545Y-77619163D01*
X84947290Y-77530347D01*
X84906760Y-77450801D01*
X84795690Y-77297927D01*
X84662073Y-77164310D01*
X84509199Y-77053240D01*
X84495143Y-77046078D01*
X84340836Y-76967454D01*
X84220748Y-76928435D01*
X84163073Y-76888997D01*
X84135875Y-76824638D01*
X84147790Y-76755792D01*
X84195034Y-76704316D01*
X84216401Y-76694559D01*
X84216339Y-76694408D01*
X84220587Y-76692648D01*
X84220755Y-76692571D01*
X84220832Y-76692547D01*
X84389199Y-76606760D01*
X84542073Y-76495690D01*
X84675690Y-76362073D01*
X84786760Y-76209199D01*
X84872547Y-76040832D01*
X84930940Y-75861118D01*
X84960500Y-75674486D01*
X84960500Y-75485513D01*
X90179500Y-75485513D01*
X90179500Y-75674486D01*
X90209059Y-75861118D01*
X90267454Y-76040836D01*
X90353240Y-76209199D01*
X90464310Y-76362073D01*
X90597927Y-76495690D01*
X90750801Y-76606760D01*
X90919168Y-76692547D01*
X91039250Y-76731564D01*
X91096926Y-76771002D01*
X91124124Y-76835360D01*
X91112209Y-76904207D01*
X91064965Y-76955682D01*
X91043598Y-76965441D01*
X91043661Y-76965592D01*
X91039463Y-76967330D01*
X91039265Y-76967421D01*
X91039169Y-76967451D01*
X90870800Y-77053240D01*
X90783579Y-77116610D01*
X90717927Y-77164310D01*
X90717925Y-77164312D01*
X90717924Y-77164312D01*
X90584312Y-77297924D01*
X90584312Y-77297925D01*
X90584310Y-77297927D01*
X90536610Y-77363579D01*
X90473240Y-77450800D01*
X90387454Y-77619163D01*
X90329059Y-77798881D01*
X90299500Y-77985513D01*
X90299500Y-78174486D01*
X90329059Y-78361118D01*
X90387454Y-78540836D01*
X90473240Y-78709199D01*
X90584310Y-78862073D01*
X90717927Y-78995690D01*
X90870801Y-79106760D01*
X90950347Y-79147290D01*
X91039163Y-79192545D01*
X91039165Y-79192545D01*
X91039168Y-79192547D01*
X91135497Y-79223846D01*
X91218881Y-79250940D01*
X91405514Y-79280500D01*
X91405519Y-79280500D01*
X91594486Y-79280500D01*
X91781118Y-79250940D01*
X91960832Y-79192547D01*
X92129199Y-79106760D01*
X92282073Y-78995690D01*
X92415690Y-78862073D01*
X92526760Y-78709199D01*
X92612547Y-78540832D01*
X92670940Y-78361118D01*
X92700500Y-78174486D01*
X92700500Y-77985513D01*
X92670940Y-77798881D01*
X92635578Y-77690050D01*
X92612547Y-77619168D01*
X92612545Y-77619165D01*
X92612545Y-77619163D01*
X92567290Y-77530347D01*
X92526760Y-77450801D01*
X92415690Y-77297927D01*
X92282073Y-77164310D01*
X92129199Y-77053240D01*
X92115143Y-77046078D01*
X91960836Y-76967454D01*
X91840748Y-76928435D01*
X91783073Y-76888997D01*
X91755875Y-76824638D01*
X91767790Y-76755792D01*
X91815034Y-76704316D01*
X91836401Y-76694559D01*
X91836339Y-76694408D01*
X91840587Y-76692648D01*
X91840755Y-76692571D01*
X91840832Y-76692547D01*
X92009199Y-76606760D01*
X92162073Y-76495690D01*
X92295690Y-76362073D01*
X92406760Y-76209199D01*
X92492547Y-76040832D01*
X92550940Y-75861118D01*
X92580500Y-75674486D01*
X92580500Y-75485513D01*
X92550940Y-75298881D01*
X92492545Y-75119163D01*
X92406759Y-74950800D01*
X92295690Y-74797927D01*
X92162073Y-74664310D01*
X92009199Y-74553240D01*
X91840836Y-74467454D01*
X91661118Y-74409059D01*
X91474486Y-74379500D01*
X91474481Y-74379500D01*
X91285519Y-74379500D01*
X91285514Y-74379500D01*
X91098881Y-74409059D01*
X90919163Y-74467454D01*
X90750800Y-74553240D01*
X90663579Y-74616610D01*
X90597927Y-74664310D01*
X90597925Y-74664312D01*
X90597924Y-74664312D01*
X90464312Y-74797924D01*
X90464312Y-74797925D01*
X90464310Y-74797927D01*
X90416610Y-74863579D01*
X90353240Y-74950800D01*
X90267454Y-75119163D01*
X90209059Y-75298881D01*
X90179500Y-75485513D01*
X84960500Y-75485513D01*
X84930940Y-75298881D01*
X84872545Y-75119163D01*
X84786759Y-74950800D01*
X84675690Y-74797927D01*
X84542073Y-74664310D01*
X84389199Y-74553240D01*
X84220836Y-74467454D01*
X84041118Y-74409059D01*
X83854486Y-74379500D01*
X83854481Y-74379500D01*
X83665519Y-74379500D01*
X83665514Y-74379500D01*
X83478881Y-74409059D01*
X83299163Y-74467454D01*
X83130800Y-74553240D01*
X83043579Y-74616610D01*
X82977927Y-74664310D01*
X82977925Y-74664312D01*
X82977924Y-74664312D01*
X82844312Y-74797924D01*
X82844312Y-74797925D01*
X82844310Y-74797927D01*
X82796610Y-74863579D01*
X82733240Y-74950800D01*
X82647454Y-75119163D01*
X82589059Y-75298881D01*
X82559500Y-75485513D01*
X82559500Y-75674486D01*
X82584725Y-75833751D01*
X82575770Y-75903045D01*
X82549933Y-75940830D01*
X79331286Y-79159478D01*
X79219481Y-79271282D01*
X79219479Y-79271285D01*
X79169361Y-79358094D01*
X79169359Y-79358096D01*
X79140425Y-79408209D01*
X79140424Y-79408210D01*
X79140423Y-79408215D01*
X79099499Y-79560943D01*
X79099499Y-79560945D01*
X79099499Y-79729046D01*
X79099500Y-79729059D01*
X79099500Y-106251701D01*
X79079815Y-106318740D01*
X79027011Y-106364495D01*
X78957853Y-106374439D01*
X78902616Y-106352020D01*
X78834024Y-106302186D01*
X78637606Y-106202104D01*
X78637603Y-106202103D01*
X78427952Y-106133985D01*
X78319086Y-106116742D01*
X78210222Y-106099500D01*
X77989778Y-106099500D01*
X77917201Y-106110995D01*
X77772047Y-106133985D01*
X77562396Y-106202103D01*
X77562393Y-106202104D01*
X77365974Y-106302187D01*
X77187641Y-106431752D01*
X77187636Y-106431756D01*
X77031756Y-106587636D01*
X77031752Y-106587641D01*
X76950318Y-106699727D01*
X76894989Y-106742393D01*
X76825375Y-106748372D01*
X76763580Y-106715767D01*
X76749682Y-106699727D01*
X76668247Y-106587641D01*
X76668243Y-106587636D01*
X76512363Y-106431756D01*
X76512358Y-106431752D01*
X76334025Y-106302187D01*
X76334024Y-106302186D01*
X76334022Y-106302185D01*
X76234943Y-106251701D01*
X76137606Y-106202104D01*
X76137603Y-106202103D01*
X75927952Y-106133985D01*
X75819086Y-106116742D01*
X75710222Y-106099500D01*
X75489778Y-106099500D01*
X75417201Y-106110995D01*
X75272047Y-106133985D01*
X75062396Y-106202103D01*
X75062393Y-106202104D01*
X74865974Y-106302187D01*
X74687641Y-106431752D01*
X74687636Y-106431756D01*
X74531756Y-106587636D01*
X74531752Y-106587641D01*
X74402187Y-106765974D01*
X74302104Y-106962393D01*
X74302103Y-106962396D01*
X74233985Y-107172047D01*
X74199500Y-107389778D01*
X51192526Y-107389778D01*
X51106224Y-107254310D01*
X51100816Y-107244942D01*
X50973924Y-107001185D01*
X50924566Y-106906369D01*
X50919997Y-106896572D01*
X50908326Y-106868395D01*
X50773920Y-106543911D01*
X50770224Y-106533755D01*
X50765538Y-106518893D01*
X50655445Y-106169720D01*
X50652646Y-106159275D01*
X50570025Y-105786601D01*
X50568149Y-105775955D01*
X50555642Y-105680953D01*
X50518326Y-105397505D01*
X50517386Y-105386773D01*
X50500618Y-105002702D01*
X50500500Y-104997293D01*
X50500500Y-104878711D01*
X53149500Y-104878711D01*
X53149500Y-105121288D01*
X53181161Y-105361785D01*
X53243947Y-105596104D01*
X53322857Y-105786609D01*
X53336776Y-105820212D01*
X53458064Y-106030289D01*
X53458066Y-106030292D01*
X53458067Y-106030293D01*
X53605733Y-106222736D01*
X53605739Y-106222743D01*
X53777256Y-106394260D01*
X53777262Y-106394265D01*
X53969711Y-106541936D01*
X54179788Y-106663224D01*
X54403900Y-106756054D01*
X54638211Y-106818838D01*
X54818586Y-106842584D01*
X54878711Y-106850500D01*
X54878712Y-106850500D01*
X55121289Y-106850500D01*
X55169388Y-106844167D01*
X55361789Y-106818838D01*
X55596100Y-106756054D01*
X55820212Y-106663224D01*
X56030289Y-106541936D01*
X56222738Y-106394265D01*
X56394265Y-106222738D01*
X56541936Y-106030289D01*
X56663224Y-105820212D01*
X56756054Y-105596100D01*
X56818838Y-105361789D01*
X56850500Y-105121288D01*
X56850500Y-104878712D01*
X56818838Y-104638211D01*
X56756054Y-104403900D01*
X56663224Y-104179788D01*
X56541936Y-103969711D01*
X56394265Y-103777262D01*
X56394260Y-103777256D01*
X56222743Y-103605739D01*
X56222736Y-103605733D01*
X56030293Y-103458067D01*
X56030292Y-103458066D01*
X56030289Y-103458064D01*
X55820212Y-103336776D01*
X55820205Y-103336773D01*
X55596104Y-103243947D01*
X55361785Y-103181161D01*
X55121289Y-103149500D01*
X55121288Y-103149500D01*
X54878712Y-103149500D01*
X54878711Y-103149500D01*
X54638214Y-103181161D01*
X54403895Y-103243947D01*
X54179794Y-103336773D01*
X54179785Y-103336777D01*
X53969706Y-103458067D01*
X53777263Y-103605733D01*
X53777256Y-103605739D01*
X53605739Y-103777256D01*
X53605733Y-103777263D01*
X53458067Y-103969706D01*
X53336777Y-104179785D01*
X53336773Y-104179794D01*
X53243947Y-104403895D01*
X53181161Y-104638214D01*
X53149500Y-104878711D01*
X50500500Y-104878711D01*
X50500500Y-100348336D01*
X70999500Y-100348336D01*
X70999500Y-100651663D01*
X71033457Y-100953048D01*
X71033460Y-100953062D01*
X71100953Y-101248771D01*
X71100957Y-101248783D01*
X71201133Y-101535068D01*
X71332733Y-101808338D01*
X71332735Y-101808341D01*
X71494108Y-102065164D01*
X71683221Y-102302304D01*
X71897696Y-102516779D01*
X72134836Y-102705892D01*
X72391659Y-102867265D01*
X72664935Y-102998868D01*
X72879951Y-103074105D01*
X72951216Y-103099042D01*
X72951228Y-103099046D01*
X73246937Y-103166540D01*
X73246946Y-103166541D01*
X73246951Y-103166542D01*
X73447874Y-103189180D01*
X73548337Y-103200499D01*
X73548340Y-103200500D01*
X73548343Y-103200500D01*
X73851660Y-103200500D01*
X73851661Y-103200499D01*
X74023297Y-103181161D01*
X74153048Y-103166542D01*
X74153051Y-103166541D01*
X74153063Y-103166540D01*
X74448772Y-103099046D01*
X74735065Y-102998868D01*
X75008341Y-102867265D01*
X75265164Y-102705892D01*
X75502304Y-102516779D01*
X75716779Y-102302304D01*
X75905892Y-102065164D01*
X76067265Y-101808341D01*
X76198868Y-101535065D01*
X76299046Y-101248772D01*
X76366540Y-100953063D01*
X76400500Y-100651657D01*
X76400500Y-100348343D01*
X76366540Y-100046937D01*
X76299046Y-99751228D01*
X76198868Y-99464935D01*
X76067265Y-99191659D01*
X75905892Y-98934836D01*
X75716779Y-98697696D01*
X75502304Y-98483221D01*
X75265164Y-98294108D01*
X75008341Y-98132735D01*
X75008338Y-98132733D01*
X74735068Y-98001133D01*
X74448783Y-97900957D01*
X74448771Y-97900953D01*
X74220556Y-97848864D01*
X74153063Y-97833460D01*
X74153060Y-97833459D01*
X74153048Y-97833457D01*
X73851663Y-97799500D01*
X73851657Y-97799500D01*
X73548343Y-97799500D01*
X73548336Y-97799500D01*
X73246951Y-97833457D01*
X73246937Y-97833460D01*
X72951228Y-97900953D01*
X72951216Y-97900957D01*
X72664931Y-98001133D01*
X72391661Y-98132733D01*
X72134837Y-98294107D01*
X71897696Y-98483220D01*
X71683220Y-98697696D01*
X71494107Y-98934837D01*
X71332733Y-99191661D01*
X71201133Y-99464931D01*
X71100957Y-99751216D01*
X71100953Y-99751228D01*
X71033460Y-100046937D01*
X71033457Y-100046951D01*
X70999500Y-100348336D01*
X50500500Y-100348336D01*
X50500500Y-86381995D01*
X54199500Y-86381995D01*
X54199500Y-86618004D01*
X54199501Y-86618020D01*
X54230306Y-86852010D01*
X54291394Y-87079993D01*
X54381714Y-87298045D01*
X54381719Y-87298056D01*
X54452677Y-87420957D01*
X54499727Y-87502450D01*
X54499729Y-87502453D01*
X54499730Y-87502454D01*
X54643406Y-87689697D01*
X54643412Y-87689704D01*
X54810295Y-87856587D01*
X54810302Y-87856593D01*
X54911618Y-87934335D01*
X54997550Y-88000273D01*
X55128918Y-88076118D01*
X55201943Y-88118280D01*
X55201948Y-88118282D01*
X55201951Y-88118284D01*
X55420007Y-88208606D01*
X55647986Y-88269693D01*
X55881989Y-88300500D01*
X55881996Y-88300500D01*
X56118004Y-88300500D01*
X56118011Y-88300500D01*
X56352014Y-88269693D01*
X56579993Y-88208606D01*
X56798049Y-88118284D01*
X57002450Y-88000273D01*
X57189699Y-87856592D01*
X57356592Y-87689699D01*
X57500273Y-87502450D01*
X57618284Y-87298049D01*
X57708606Y-87079993D01*
X57769693Y-86852014D01*
X57800500Y-86618011D01*
X57800500Y-86381989D01*
X57769693Y-86147986D01*
X57708606Y-85920007D01*
X57618284Y-85701951D01*
X57618282Y-85701948D01*
X57618280Y-85701943D01*
X57537686Y-85562352D01*
X57500273Y-85497550D01*
X57392923Y-85357648D01*
X57356593Y-85310302D01*
X57356587Y-85310295D01*
X57189704Y-85143412D01*
X57189697Y-85143406D01*
X57002454Y-84999730D01*
X57002453Y-84999729D01*
X57002450Y-84999727D01*
X56907892Y-84945134D01*
X56798056Y-84881719D01*
X56798045Y-84881714D01*
X56579993Y-84791394D01*
X56352010Y-84730306D01*
X56118020Y-84699501D01*
X56118017Y-84699500D01*
X56118011Y-84699500D01*
X55881989Y-84699500D01*
X55881983Y-84699500D01*
X55881979Y-84699501D01*
X55647989Y-84730306D01*
X55420006Y-84791394D01*
X55201954Y-84881714D01*
X55201943Y-84881719D01*
X54997545Y-84999730D01*
X54810302Y-85143406D01*
X54810295Y-85143412D01*
X54643412Y-85310295D01*
X54643406Y-85310302D01*
X54499730Y-85497545D01*
X54381719Y-85701943D01*
X54381714Y-85701954D01*
X54291394Y-85920006D01*
X54230306Y-86147989D01*
X54199501Y-86381979D01*
X54199500Y-86381995D01*
X50500500Y-86381995D01*
X50500500Y-80400013D01*
X54200000Y-80400013D01*
X54200000Y-81250000D01*
X55399999Y-81250000D01*
X55374979Y-81310402D01*
X55350000Y-81435981D01*
X55350000Y-81564019D01*
X55374979Y-81689598D01*
X55399999Y-81750000D01*
X54200001Y-81750000D01*
X54200001Y-82599986D01*
X54210494Y-82702697D01*
X54265641Y-82869119D01*
X54265643Y-82869124D01*
X54357684Y-83018345D01*
X54481654Y-83142315D01*
X54630875Y-83234356D01*
X54630880Y-83234358D01*
X54797302Y-83289505D01*
X54797309Y-83289506D01*
X54900019Y-83299999D01*
X55749999Y-83299999D01*
X55750000Y-83299998D01*
X55750000Y-82100001D01*
X55810402Y-82125021D01*
X55935981Y-82150000D01*
X56064019Y-82150000D01*
X56189598Y-82125021D01*
X56250000Y-82100001D01*
X56250000Y-83299999D01*
X57099972Y-83299999D01*
X57099986Y-83299998D01*
X57202697Y-83289505D01*
X57369119Y-83234358D01*
X57369124Y-83234356D01*
X57518345Y-83142315D01*
X57642315Y-83018345D01*
X57734356Y-82869124D01*
X57734358Y-82869119D01*
X57789505Y-82702697D01*
X57789506Y-82702690D01*
X57799999Y-82599986D01*
X57800000Y-82599973D01*
X57800000Y-81750000D01*
X56600001Y-81750000D01*
X56625021Y-81689598D01*
X56650000Y-81564019D01*
X56650000Y-81435981D01*
X56625021Y-81310402D01*
X56600001Y-81250000D01*
X57799999Y-81250000D01*
X57799999Y-80400028D01*
X57799998Y-80400013D01*
X57789505Y-80297302D01*
X57734358Y-80130880D01*
X57734356Y-80130875D01*
X57642315Y-79981654D01*
X57518345Y-79857684D01*
X57369124Y-79765643D01*
X57369119Y-79765641D01*
X57202697Y-79710494D01*
X57202690Y-79710493D01*
X57099986Y-79700000D01*
X56250000Y-79700000D01*
X56250000Y-80899998D01*
X56189598Y-80874979D01*
X56064019Y-80850000D01*
X55935981Y-80850000D01*
X55810402Y-80874979D01*
X55750000Y-80899998D01*
X55750000Y-79700000D01*
X54900028Y-79700000D01*
X54900012Y-79700001D01*
X54797302Y-79710494D01*
X54630880Y-79765641D01*
X54630875Y-79765643D01*
X54481654Y-79857684D01*
X54357684Y-79981654D01*
X54265643Y-80130875D01*
X54265641Y-80130880D01*
X54210494Y-80297302D01*
X54210493Y-80297309D01*
X54200000Y-80400013D01*
X50500500Y-80400013D01*
X50500500Y-78007882D01*
X61345669Y-78007882D01*
X61345670Y-78007883D01*
X61371059Y-78026329D01*
X61539362Y-78112085D01*
X61718997Y-78170451D01*
X61905553Y-78200000D01*
X62094447Y-78200000D01*
X62281002Y-78170451D01*
X62460637Y-78112085D01*
X62628937Y-78026331D01*
X62654328Y-78007883D01*
X62654328Y-78007882D01*
X62000001Y-77353554D01*
X62000000Y-77353554D01*
X61345669Y-78007882D01*
X50500500Y-78007882D01*
X50500500Y-76905552D01*
X60800000Y-76905552D01*
X60800000Y-77094447D01*
X60829548Y-77281002D01*
X60887914Y-77460637D01*
X60973666Y-77628933D01*
X60992116Y-77654328D01*
X61646446Y-77000000D01*
X61646446Y-76999999D01*
X61600369Y-76953922D01*
X61650000Y-76953922D01*
X61650000Y-77046078D01*
X61673852Y-77135095D01*
X61719930Y-77214905D01*
X61785095Y-77280070D01*
X61864905Y-77326148D01*
X61953922Y-77350000D01*
X62046078Y-77350000D01*
X62135095Y-77326148D01*
X62214905Y-77280070D01*
X62280070Y-77214905D01*
X62326148Y-77135095D01*
X62350000Y-77046078D01*
X62350000Y-76999999D01*
X62353554Y-76999999D01*
X62353554Y-77000000D01*
X63007882Y-77654328D01*
X63007883Y-77654328D01*
X63026331Y-77628937D01*
X63112085Y-77460637D01*
X63170451Y-77281002D01*
X63200000Y-77094447D01*
X63200000Y-76905552D01*
X63170451Y-76718997D01*
X63112085Y-76539362D01*
X63026329Y-76371059D01*
X63007883Y-76345670D01*
X63007882Y-76345669D01*
X62353554Y-76999999D01*
X62350000Y-76999999D01*
X62350000Y-76953922D01*
X62326148Y-76864905D01*
X62280070Y-76785095D01*
X62214905Y-76719930D01*
X62135095Y-76673852D01*
X62046078Y-76650000D01*
X61953922Y-76650000D01*
X61864905Y-76673852D01*
X61785095Y-76719930D01*
X61719930Y-76785095D01*
X61673852Y-76864905D01*
X61650000Y-76953922D01*
X61600369Y-76953922D01*
X60992116Y-76345669D01*
X60992116Y-76345670D01*
X60973669Y-76371060D01*
X60887914Y-76539362D01*
X60829548Y-76718997D01*
X60800000Y-76905552D01*
X50500500Y-76905552D01*
X50500500Y-75992116D01*
X61345669Y-75992116D01*
X62000000Y-76646446D01*
X62000001Y-76646446D01*
X62654328Y-75992116D01*
X62628933Y-75973666D01*
X62460637Y-75887914D01*
X62281002Y-75829548D01*
X62094447Y-75800000D01*
X61905553Y-75800000D01*
X61718997Y-75829548D01*
X61539362Y-75887914D01*
X61371060Y-75973669D01*
X61345670Y-75992116D01*
X61345669Y-75992116D01*
X50500500Y-75992116D01*
X50500500Y-71052135D01*
X65059500Y-71052135D01*
X65059500Y-72947870D01*
X65059501Y-72947876D01*
X65065908Y-73007483D01*
X65116202Y-73142328D01*
X65116206Y-73142335D01*
X65202452Y-73257544D01*
X65202455Y-73257547D01*
X65317664Y-73343793D01*
X65317671Y-73343797D01*
X65452517Y-73394091D01*
X65452516Y-73394091D01*
X65459444Y-73394835D01*
X65512127Y-73400500D01*
X67407872Y-73400499D01*
X67467483Y-73394091D01*
X67602331Y-73343796D01*
X67717546Y-73257546D01*
X67803796Y-73142331D01*
X67831429Y-73068243D01*
X67833601Y-73062420D01*
X67875471Y-73006486D01*
X67940936Y-72982068D01*
X68009209Y-72996919D01*
X68037464Y-73018071D01*
X68087636Y-73068243D01*
X68087641Y-73068247D01*
X68189603Y-73142326D01*
X68265978Y-73197815D01*
X68394375Y-73263237D01*
X68462393Y-73297895D01*
X68462396Y-73297896D01*
X68567221Y-73331955D01*
X68672049Y-73366015D01*
X68889778Y-73400500D01*
X68889779Y-73400500D01*
X69110221Y-73400500D01*
X69110222Y-73400500D01*
X69327951Y-73366015D01*
X69537606Y-73297895D01*
X69734022Y-73197815D01*
X69912365Y-73068242D01*
X70068242Y-72912365D01*
X70197815Y-72734022D01*
X70297895Y-72537606D01*
X70366015Y-72327951D01*
X70400500Y-72110222D01*
X70400500Y-71889778D01*
X70366015Y-71672049D01*
X70297895Y-71462394D01*
X70297895Y-71462393D01*
X70263237Y-71394375D01*
X70197815Y-71265978D01*
X70139501Y-71185715D01*
X70068247Y-71087641D01*
X70068243Y-71087636D01*
X69912363Y-70931756D01*
X69912358Y-70931752D01*
X69734025Y-70802187D01*
X69734024Y-70802186D01*
X69734022Y-70802185D01*
X69616791Y-70742452D01*
X69537606Y-70702104D01*
X69537603Y-70702103D01*
X69327952Y-70633985D01*
X69219086Y-70616742D01*
X69110222Y-70599500D01*
X68889778Y-70599500D01*
X68817201Y-70610995D01*
X68672047Y-70633985D01*
X68462396Y-70702103D01*
X68462393Y-70702104D01*
X68265974Y-70802187D01*
X68087641Y-70931752D01*
X68087636Y-70931756D01*
X68037463Y-70981929D01*
X67976140Y-71015413D01*
X67906448Y-71010428D01*
X67850515Y-70968557D01*
X67833601Y-70937580D01*
X67803797Y-70857671D01*
X67803793Y-70857664D01*
X67717547Y-70742455D01*
X67717544Y-70742452D01*
X67602335Y-70656206D01*
X67602328Y-70656202D01*
X67467482Y-70605908D01*
X67467483Y-70605908D01*
X67407883Y-70599501D01*
X67407881Y-70599500D01*
X67407873Y-70599500D01*
X67407864Y-70599500D01*
X65512129Y-70599500D01*
X65512123Y-70599501D01*
X65452516Y-70605908D01*
X65317671Y-70656202D01*
X65317664Y-70656206D01*
X65202455Y-70742452D01*
X65202452Y-70742455D01*
X65116206Y-70857664D01*
X65116202Y-70857671D01*
X65065908Y-70992517D01*
X65059501Y-71052116D01*
X65059500Y-71052135D01*
X50500500Y-71052135D01*
X50500500Y-69285513D01*
X60799500Y-69285513D01*
X60799500Y-69474486D01*
X60829059Y-69661118D01*
X60887454Y-69840836D01*
X60973240Y-70009199D01*
X61084310Y-70162073D01*
X61217927Y-70295690D01*
X61370801Y-70406760D01*
X61450347Y-70447290D01*
X61539163Y-70492545D01*
X61539165Y-70492545D01*
X61539168Y-70492547D01*
X61635497Y-70523846D01*
X61718881Y-70550940D01*
X61905514Y-70580500D01*
X61905519Y-70580500D01*
X62094486Y-70580500D01*
X62281118Y-70550940D01*
X62460832Y-70492547D01*
X62629199Y-70406760D01*
X62782073Y-70295690D01*
X62915690Y-70162073D01*
X63026760Y-70009199D01*
X63112547Y-69840832D01*
X63170940Y-69661118D01*
X63200500Y-69474486D01*
X63200500Y-69285513D01*
X63170940Y-69098881D01*
X63112545Y-68919163D01*
X63026759Y-68750800D01*
X62915690Y-68597927D01*
X62782073Y-68464310D01*
X62629199Y-68353240D01*
X62460836Y-68267454D01*
X62281118Y-68209059D01*
X62094486Y-68179500D01*
X62094481Y-68179500D01*
X61905519Y-68179500D01*
X61905514Y-68179500D01*
X61718881Y-68209059D01*
X61539163Y-68267454D01*
X61370800Y-68353240D01*
X61283579Y-68416610D01*
X61217927Y-68464310D01*
X61217925Y-68464312D01*
X61217924Y-68464312D01*
X61084312Y-68597924D01*
X61084312Y-68597925D01*
X61084310Y-68597927D01*
X61036610Y-68663579D01*
X60973240Y-68750800D01*
X60887454Y-68919163D01*
X60829059Y-69098881D01*
X60799500Y-69285513D01*
X50500500Y-69285513D01*
X50500500Y-65002706D01*
X50500618Y-64997297D01*
X50505796Y-64878711D01*
X53149500Y-64878711D01*
X53149500Y-65121288D01*
X53181161Y-65361785D01*
X53243947Y-65596104D01*
X53336773Y-65820205D01*
X53336776Y-65820212D01*
X53458064Y-66030289D01*
X53458066Y-66030292D01*
X53458067Y-66030293D01*
X53605733Y-66222736D01*
X53605739Y-66222743D01*
X53777256Y-66394260D01*
X53777262Y-66394265D01*
X53969711Y-66541936D01*
X54179788Y-66663224D01*
X54403900Y-66756054D01*
X54638211Y-66818838D01*
X54818586Y-66842584D01*
X54878711Y-66850500D01*
X54878712Y-66850500D01*
X55121289Y-66850500D01*
X55169388Y-66844167D01*
X55361789Y-66818838D01*
X55596100Y-66756054D01*
X55820212Y-66663224D01*
X56030289Y-66541936D01*
X56222738Y-66394265D01*
X56394265Y-66222738D01*
X56541936Y-66030289D01*
X56663224Y-65820212D01*
X56756054Y-65596100D01*
X56818838Y-65361789D01*
X56850500Y-65121288D01*
X56850500Y-64878712D01*
X56850500Y-64878711D01*
X103149500Y-64878711D01*
X103149500Y-65121288D01*
X103181161Y-65361785D01*
X103243947Y-65596104D01*
X103336773Y-65820205D01*
X103336776Y-65820212D01*
X103458064Y-66030289D01*
X103458066Y-66030292D01*
X103458067Y-66030293D01*
X103605733Y-66222736D01*
X103605739Y-66222743D01*
X103777256Y-66394260D01*
X103777262Y-66394265D01*
X103969711Y-66541936D01*
X104179788Y-66663224D01*
X104403900Y-66756054D01*
X104638211Y-66818838D01*
X104818586Y-66842584D01*
X104878711Y-66850500D01*
X104878712Y-66850500D01*
X105121289Y-66850500D01*
X105169388Y-66844167D01*
X105361789Y-66818838D01*
X105596100Y-66756054D01*
X105820212Y-66663224D01*
X106030289Y-66541936D01*
X106222738Y-66394265D01*
X106394265Y-66222738D01*
X106541936Y-66030289D01*
X106663224Y-65820212D01*
X106756054Y-65596100D01*
X106818838Y-65361789D01*
X106850500Y-65121288D01*
X106850500Y-64878712D01*
X106849253Y-64869243D01*
X106818838Y-64638214D01*
X106818838Y-64638211D01*
X106756054Y-64403900D01*
X106663224Y-64179788D01*
X106541936Y-63969711D01*
X106394265Y-63777262D01*
X106394260Y-63777256D01*
X106222743Y-63605739D01*
X106222736Y-63605733D01*
X106030293Y-63458067D01*
X106030292Y-63458066D01*
X106030289Y-63458064D01*
X105820212Y-63336776D01*
X105820205Y-63336773D01*
X105596104Y-63243947D01*
X105361785Y-63181161D01*
X105121289Y-63149500D01*
X105121288Y-63149500D01*
X104878712Y-63149500D01*
X104878711Y-63149500D01*
X104638214Y-63181161D01*
X104403895Y-63243947D01*
X104179794Y-63336773D01*
X104179785Y-63336777D01*
X103969706Y-63458067D01*
X103777263Y-63605733D01*
X103777256Y-63605739D01*
X103605739Y-63777256D01*
X103605733Y-63777263D01*
X103458067Y-63969706D01*
X103336777Y-64179785D01*
X103336773Y-64179794D01*
X103243947Y-64403895D01*
X103181161Y-64638214D01*
X103149500Y-64878711D01*
X56850500Y-64878711D01*
X56849253Y-64869243D01*
X56818838Y-64638214D01*
X56818838Y-64638211D01*
X56756054Y-64403900D01*
X56663224Y-64179788D01*
X56541936Y-63969711D01*
X56394265Y-63777262D01*
X56394260Y-63777256D01*
X56222743Y-63605739D01*
X56222736Y-63605733D01*
X56030293Y-63458067D01*
X56030292Y-63458066D01*
X56030289Y-63458064D01*
X55820212Y-63336776D01*
X55820205Y-63336773D01*
X55596104Y-63243947D01*
X55361785Y-63181161D01*
X55121289Y-63149500D01*
X55121288Y-63149500D01*
X54878712Y-63149500D01*
X54878711Y-63149500D01*
X54638214Y-63181161D01*
X54403895Y-63243947D01*
X54179794Y-63336773D01*
X54179785Y-63336777D01*
X53969706Y-63458067D01*
X53777263Y-63605733D01*
X53777256Y-63605739D01*
X53605739Y-63777256D01*
X53605733Y-63777263D01*
X53458067Y-63969706D01*
X53336777Y-64179785D01*
X53336773Y-64179794D01*
X53243947Y-64403895D01*
X53181161Y-64638214D01*
X53149500Y-64878711D01*
X50505796Y-64878711D01*
X50506209Y-64869244D01*
X50506209Y-64869243D01*
X50510433Y-64772498D01*
X50517386Y-64613226D01*
X50518325Y-64602496D01*
X50568151Y-64224032D01*
X50570024Y-64213402D01*
X50652648Y-63840714D01*
X50655446Y-63830276D01*
X50672161Y-63777263D01*
X50770230Y-63466227D01*
X50773917Y-63456095D01*
X50920003Y-63103412D01*
X50924561Y-63093638D01*
X51100822Y-62755045D01*
X51106217Y-62745700D01*
X51311325Y-62423744D01*
X51317515Y-62414905D01*
X51549896Y-62112060D01*
X51556834Y-62103791D01*
X51814726Y-61822352D01*
X51822352Y-61814726D01*
X52103791Y-61556834D01*
X52112060Y-61549896D01*
X52414905Y-61317515D01*
X52423744Y-61311325D01*
X52745700Y-61106217D01*
X52755045Y-61100822D01*
X53093638Y-60924561D01*
X53103412Y-60920003D01*
X53456095Y-60773917D01*
X53466227Y-60770230D01*
X53830285Y-60655443D01*
X53840714Y-60652648D01*
X54213402Y-60570024D01*
X54224032Y-60568151D01*
X54602496Y-60518325D01*
X54613224Y-60517387D01*
X54997297Y-60500617D01*
X55002706Y-60500500D01*
X55065892Y-60500500D01*
X104934108Y-60500500D01*
X104997294Y-60500500D01*
X105002702Y-60500617D01*
G37*
%TD.AperFunction*%
%TD*%
M02*
