%TF.GenerationSoftware,KiCad,Pcbnew,10.0.5-1.fc44*%
%TF.CreationDate,2026-08-16T11:42:41+10:00*%
%TF.ProjectId,servo_controller_555,73657276-6f5f-4636-9f6e-74726f6c6c65,rev?*%
%TF.SameCoordinates,Original*%
%TF.FileFunction,Soldermask,Top*%
%TF.FilePolarity,Negative*%
%FSLAX46Y46*%
G04 Gerber Fmt 4.6, Leading zero omitted, Abs format (unit mm)*
G04 Created by KiCad (PCBNEW 10.0.5-1.fc44) date 2026-08-16 11:42:41*
%MOMM*%
%LPD*%
G01*
G04 APERTURE LIST*
G04 Aperture macros list*
%AMRoundRect*
0 Rectangle with rounded corners*
0 $1 Rounding radius*
0 $2 $3 $4 $5 $6 $7 $8 $9 X,Y pos of 4 corners*
0 Add a 4 corners polygon primitive as box body*
4,1,4,$2,$3,$4,$5,$6,$7,$8,$9,$2,$3,0*
0 Add four circle primitives for the rounded corners*
1,1,$1+$1,$2,$3*
1,1,$1+$1,$4,$5*
1,1,$1+$1,$6,$7*
1,1,$1+$1,$8,$9*
0 Add four rect primitives between the rounded corners*
20,1,$1+$1,$2,$3,$4,$5,0*
20,1,$1+$1,$4,$5,$6,$7,0*
20,1,$1+$1,$6,$7,$8,$9,0*
20,1,$1+$1,$8,$9,$2,$3,0*%
G04 Aperture macros list end*
%ADD10C,1.600000*%
%ADD11RoundRect,0.250000X0.550000X0.550000X-0.550000X0.550000X-0.550000X-0.550000X0.550000X-0.550000X0*%
%ADD12C,3.200000*%
%ADD13R,1.700000X1.700000*%
%ADD14C,1.700000*%
%ADD15RoundRect,0.250000X1.500000X0.650000X-1.500000X0.650000X-1.500000X-0.650000X1.500000X-0.650000X0*%
%ADD16C,1.800000*%
%ADD17C,4.400000*%
%ADD18C,1.400000*%
%ADD19RoundRect,0.375000X-0.625000X-0.375000X0.625000X-0.375000X0.625000X0.375000X-0.625000X0.375000X0*%
%ADD20RoundRect,0.500000X-0.500000X-1.400000X0.500000X-1.400000X0.500000X1.400000X-0.500000X1.400000X0*%
%ADD21RoundRect,0.250000X-1.050000X1.050000X-1.050000X-1.050000X1.050000X-1.050000X1.050000X1.050000X0*%
%ADD22C,2.600000*%
%ADD23RoundRect,0.250000X0.337500X0.475000X-0.337500X0.475000X-0.337500X-0.475000X0.337500X-0.475000X0*%
%ADD24RoundRect,0.250000X0.400000X0.625000X-0.400000X0.625000X-0.400000X-0.625000X0.400000X-0.625000X0*%
%ADD25RoundRect,0.250000X-0.550000X-0.550000X0.550000X-0.550000X0.550000X0.550000X-0.550000X0.550000X0*%
%ADD26RoundRect,0.250000X0.325000X0.450000X-0.325000X0.450000X-0.325000X-0.450000X0.325000X-0.450000X0*%
%ADD27R,1.800000X1.800000*%
G04 APERTURE END LIST*
D10*
%TO.C,C1*%
X98380000Y-90580000D03*
X98380000Y-93080000D03*
%TD*%
D11*
%TO.C,U1*%
X95500000Y-93080000D03*
D10*
X95500000Y-90540000D03*
X95500000Y-88000000D03*
X95500000Y-85460000D03*
X87880000Y-85460000D03*
X87880000Y-88000000D03*
X87880000Y-90540000D03*
X87880000Y-93080000D03*
%TD*%
D12*
%TO.C,REF\u002A\u002A*%
X105000000Y-65000000D03*
%TD*%
%TO.C,REF\u002A\u002A*%
X55000000Y-105000000D03*
%TD*%
D13*
%TO.C,J1*%
X105000000Y-82460000D03*
D14*
X105000000Y-85000000D03*
X105000000Y-87540000D03*
%TD*%
D15*
%TO.C,D4*%
X59500000Y-93500000D03*
X54500000Y-93500000D03*
%TD*%
D16*
%TO.C,RV1*%
X80600000Y-107500000D03*
X78100000Y-107500000D03*
X75600000Y-107500000D03*
D17*
X73700000Y-100500000D03*
X82500000Y-100500000D03*
%TD*%
D12*
%TO.C,REF\u002A\u002A*%
X55000000Y-65000000D03*
%TD*%
D10*
%TO.C,C2*%
X90380000Y-97580000D03*
X92880000Y-97580000D03*
%TD*%
D18*
%TO.C,R2*%
X83760000Y-75580000D03*
X91380000Y-75580000D03*
%TD*%
D12*
%TO.C,REF\u002A\u002A*%
X105000000Y-105000000D03*
%TD*%
D19*
%TO.C,U2*%
X65200000Y-82700000D03*
X65200000Y-85000000D03*
D20*
X71500000Y-85000000D03*
D19*
X65200000Y-87300000D03*
%TD*%
D21*
%TO.C,J2*%
X56000000Y-81500000D03*
D22*
X56000000Y-86500000D03*
%TD*%
D23*
%TO.C,C3*%
X68537500Y-77000000D03*
X66462500Y-77000000D03*
%TD*%
D18*
%TO.C,R1*%
X83880000Y-78080000D03*
X91500000Y-78080000D03*
%TD*%
D24*
%TO.C,R4*%
X70000000Y-92000000D03*
X66900000Y-92000000D03*
%TD*%
D25*
%TO.C,D1*%
X83880000Y-81080000D03*
D10*
X91500000Y-81080000D03*
%TD*%
D26*
%TO.C,D3*%
X69000000Y-95000000D03*
X66950000Y-95000000D03*
%TD*%
D18*
%TO.C,R3*%
X62000000Y-69380000D03*
X62000000Y-77000000D03*
%TD*%
D27*
%TO.C,D2*%
X66460000Y-72000000D03*
D16*
X69000000Y-72000000D03*
%TD*%
M02*
