%TF.GenerationSoftware,KiCad,Pcbnew,10.0.5-1.fc44*%
%TF.CreationDate,2026-08-16T11:42:41+10:00*%
%TF.ProjectId,servo_controller_555,73657276-6f5f-4636-9f6e-74726f6c6c65,rev?*%
%TF.SameCoordinates,Original*%
%TF.FileFunction,Legend,Top*%
%TF.FilePolarity,Positive*%
%FSLAX46Y46*%
G04 Gerber Fmt 4.6, Leading zero omitted, Abs format (unit mm)*
G04 Created by KiCad (PCBNEW 10.0.5-1.fc44) date 2026-08-16 11:42:41*
%MOMM*%
%LPD*%
G01*
G04 APERTURE LIST*
%ADD10C,0.100000*%
%ADD11C,0.150000*%
%ADD12C,0.120000*%
G04 APERTURE END LIST*
D10*
X78161027Y-62652531D02*
X78732455Y-62652531D01*
X78446741Y-63652531D02*
X78446741Y-62652531D01*
X79065789Y-63652531D02*
X79065789Y-62652531D01*
X79494360Y-63652531D02*
X79494360Y-63128721D01*
X79494360Y-63128721D02*
X79446741Y-63033483D01*
X79446741Y-63033483D02*
X79351503Y-62985864D01*
X79351503Y-62985864D02*
X79208646Y-62985864D01*
X79208646Y-62985864D02*
X79113408Y-63033483D01*
X79113408Y-63033483D02*
X79065789Y-63081102D01*
X80351503Y-63604912D02*
X80256265Y-63652531D01*
X80256265Y-63652531D02*
X80065789Y-63652531D01*
X80065789Y-63652531D02*
X79970551Y-63604912D01*
X79970551Y-63604912D02*
X79922932Y-63509673D01*
X79922932Y-63509673D02*
X79922932Y-63128721D01*
X79922932Y-63128721D02*
X79970551Y-63033483D01*
X79970551Y-63033483D02*
X80065789Y-62985864D01*
X80065789Y-62985864D02*
X80256265Y-62985864D01*
X80256265Y-62985864D02*
X80351503Y-63033483D01*
X80351503Y-63033483D02*
X80399122Y-63128721D01*
X80399122Y-63128721D02*
X80399122Y-63223959D01*
X80399122Y-63223959D02*
X79922932Y-63319197D01*
X80970551Y-63652531D02*
X80875313Y-63604912D01*
X80875313Y-63604912D02*
X80827694Y-63557292D01*
X80827694Y-63557292D02*
X80780075Y-63462054D01*
X80780075Y-63462054D02*
X80780075Y-63176340D01*
X80780075Y-63176340D02*
X80827694Y-63081102D01*
X80827694Y-63081102D02*
X80875313Y-63033483D01*
X80875313Y-63033483D02*
X80970551Y-62985864D01*
X80970551Y-62985864D02*
X81113408Y-62985864D01*
X81113408Y-62985864D02*
X81208646Y-63033483D01*
X81208646Y-63033483D02*
X81256265Y-63081102D01*
X81256265Y-63081102D02*
X81303884Y-63176340D01*
X81303884Y-63176340D02*
X81303884Y-63462054D01*
X81303884Y-63462054D02*
X81256265Y-63557292D01*
X81256265Y-63557292D02*
X81208646Y-63604912D01*
X81208646Y-63604912D02*
X81113408Y-63652531D01*
X81113408Y-63652531D02*
X80970551Y-63652531D01*
X82494361Y-63652531D02*
X82494361Y-62652531D01*
X82494361Y-62652531D02*
X82732456Y-62652531D01*
X82732456Y-62652531D02*
X82875313Y-62700150D01*
X82875313Y-62700150D02*
X82970551Y-62795388D01*
X82970551Y-62795388D02*
X83018170Y-62890626D01*
X83018170Y-62890626D02*
X83065789Y-63081102D01*
X83065789Y-63081102D02*
X83065789Y-63223959D01*
X83065789Y-63223959D02*
X83018170Y-63414435D01*
X83018170Y-63414435D02*
X82970551Y-63509673D01*
X82970551Y-63509673D02*
X82875313Y-63604912D01*
X82875313Y-63604912D02*
X82732456Y-63652531D01*
X82732456Y-63652531D02*
X82494361Y-63652531D01*
X83875313Y-63604912D02*
X83780075Y-63652531D01*
X83780075Y-63652531D02*
X83589599Y-63652531D01*
X83589599Y-63652531D02*
X83494361Y-63604912D01*
X83494361Y-63604912D02*
X83446742Y-63509673D01*
X83446742Y-63509673D02*
X83446742Y-63128721D01*
X83446742Y-63128721D02*
X83494361Y-63033483D01*
X83494361Y-63033483D02*
X83589599Y-62985864D01*
X83589599Y-62985864D02*
X83780075Y-62985864D01*
X83780075Y-62985864D02*
X83875313Y-63033483D01*
X83875313Y-63033483D02*
X83922932Y-63128721D01*
X83922932Y-63128721D02*
X83922932Y-63223959D01*
X83922932Y-63223959D02*
X83446742Y-63319197D01*
X84256266Y-62985864D02*
X84494361Y-63652531D01*
X84494361Y-63652531D02*
X84732456Y-62985864D01*
X85256266Y-63652531D02*
X85161028Y-63604912D01*
X85161028Y-63604912D02*
X85113409Y-63557292D01*
X85113409Y-63557292D02*
X85065790Y-63462054D01*
X85065790Y-63462054D02*
X85065790Y-63176340D01*
X85065790Y-63176340D02*
X85113409Y-63081102D01*
X85113409Y-63081102D02*
X85161028Y-63033483D01*
X85161028Y-63033483D02*
X85256266Y-62985864D01*
X85256266Y-62985864D02*
X85399123Y-62985864D01*
X85399123Y-62985864D02*
X85494361Y-63033483D01*
X85494361Y-63033483D02*
X85541980Y-63081102D01*
X85541980Y-63081102D02*
X85589599Y-63176340D01*
X85589599Y-63176340D02*
X85589599Y-63462054D01*
X85589599Y-63462054D02*
X85541980Y-63557292D01*
X85541980Y-63557292D02*
X85494361Y-63604912D01*
X85494361Y-63604912D02*
X85399123Y-63652531D01*
X85399123Y-63652531D02*
X85256266Y-63652531D01*
X85970552Y-63604912D02*
X86065790Y-63652531D01*
X86065790Y-63652531D02*
X86256266Y-63652531D01*
X86256266Y-63652531D02*
X86351504Y-63604912D01*
X86351504Y-63604912D02*
X86399123Y-63509673D01*
X86399123Y-63509673D02*
X86399123Y-63462054D01*
X86399123Y-63462054D02*
X86351504Y-63366816D01*
X86351504Y-63366816D02*
X86256266Y-63319197D01*
X86256266Y-63319197D02*
X86113409Y-63319197D01*
X86113409Y-63319197D02*
X86018171Y-63271578D01*
X86018171Y-63271578D02*
X85970552Y-63176340D01*
X85970552Y-63176340D02*
X85970552Y-63128721D01*
X85970552Y-63128721D02*
X86018171Y-63033483D01*
X86018171Y-63033483D02*
X86113409Y-62985864D01*
X86113409Y-62985864D02*
X86256266Y-62985864D01*
X86256266Y-62985864D02*
X86351504Y-63033483D01*
X86827695Y-63271578D02*
X87589600Y-63271578D01*
X87922933Y-62652531D02*
X88256266Y-63652531D01*
X88256266Y-63652531D02*
X88589599Y-62652531D01*
X89303885Y-63604912D02*
X89208647Y-63652531D01*
X89208647Y-63652531D02*
X89018171Y-63652531D01*
X89018171Y-63652531D02*
X88922933Y-63604912D01*
X88922933Y-63604912D02*
X88875314Y-63509673D01*
X88875314Y-63509673D02*
X88875314Y-63128721D01*
X88875314Y-63128721D02*
X88922933Y-63033483D01*
X88922933Y-63033483D02*
X89018171Y-62985864D01*
X89018171Y-62985864D02*
X89208647Y-62985864D01*
X89208647Y-62985864D02*
X89303885Y-63033483D01*
X89303885Y-63033483D02*
X89351504Y-63128721D01*
X89351504Y-63128721D02*
X89351504Y-63223959D01*
X89351504Y-63223959D02*
X88875314Y-63319197D01*
X89780076Y-63652531D02*
X89780076Y-62985864D01*
X89780076Y-63176340D02*
X89827695Y-63081102D01*
X89827695Y-63081102D02*
X89875314Y-63033483D01*
X89875314Y-63033483D02*
X89970552Y-62985864D01*
X89970552Y-62985864D02*
X90065790Y-62985864D01*
X90399124Y-62985864D02*
X90399124Y-63652531D01*
X90399124Y-63081102D02*
X90446743Y-63033483D01*
X90446743Y-63033483D02*
X90541981Y-62985864D01*
X90541981Y-62985864D02*
X90684838Y-62985864D01*
X90684838Y-62985864D02*
X90780076Y-63033483D01*
X90780076Y-63033483D02*
X90827695Y-63128721D01*
X90827695Y-63128721D02*
X90827695Y-63652531D01*
X91684838Y-63604912D02*
X91589600Y-63652531D01*
X91589600Y-63652531D02*
X91399124Y-63652531D01*
X91399124Y-63652531D02*
X91303886Y-63604912D01*
X91303886Y-63604912D02*
X91256267Y-63509673D01*
X91256267Y-63509673D02*
X91256267Y-63128721D01*
X91256267Y-63128721D02*
X91303886Y-63033483D01*
X91303886Y-63033483D02*
X91399124Y-62985864D01*
X91399124Y-62985864D02*
X91589600Y-62985864D01*
X91589600Y-62985864D02*
X91684838Y-63033483D01*
X91684838Y-63033483D02*
X91732457Y-63128721D01*
X91732457Y-63128721D02*
X91732457Y-63223959D01*
X91732457Y-63223959D02*
X91256267Y-63319197D01*
X92113410Y-63604912D02*
X92208648Y-63652531D01*
X92208648Y-63652531D02*
X92399124Y-63652531D01*
X92399124Y-63652531D02*
X92494362Y-63604912D01*
X92494362Y-63604912D02*
X92541981Y-63509673D01*
X92541981Y-63509673D02*
X92541981Y-63462054D01*
X92541981Y-63462054D02*
X92494362Y-63366816D01*
X92494362Y-63366816D02*
X92399124Y-63319197D01*
X92399124Y-63319197D02*
X92256267Y-63319197D01*
X92256267Y-63319197D02*
X92161029Y-63271578D01*
X92161029Y-63271578D02*
X92113410Y-63176340D01*
X92113410Y-63176340D02*
X92113410Y-63128721D01*
X92113410Y-63128721D02*
X92161029Y-63033483D01*
X92161029Y-63033483D02*
X92256267Y-62985864D01*
X92256267Y-62985864D02*
X92399124Y-62985864D01*
X92399124Y-62985864D02*
X92494362Y-63033483D01*
X78732455Y-65214856D02*
X78637217Y-65262475D01*
X78637217Y-65262475D02*
X78446741Y-65262475D01*
X78446741Y-65262475D02*
X78351503Y-65214856D01*
X78351503Y-65214856D02*
X78303884Y-65167236D01*
X78303884Y-65167236D02*
X78256265Y-65071998D01*
X78256265Y-65071998D02*
X78256265Y-64786284D01*
X78256265Y-64786284D02*
X78303884Y-64691046D01*
X78303884Y-64691046D02*
X78351503Y-64643427D01*
X78351503Y-64643427D02*
X78446741Y-64595808D01*
X78446741Y-64595808D02*
X78637217Y-64595808D01*
X78637217Y-64595808D02*
X78732455Y-64643427D01*
X79065789Y-64262475D02*
X79684836Y-64262475D01*
X79684836Y-64262475D02*
X79351503Y-64643427D01*
X79351503Y-64643427D02*
X79494360Y-64643427D01*
X79494360Y-64643427D02*
X79589598Y-64691046D01*
X79589598Y-64691046D02*
X79637217Y-64738665D01*
X79637217Y-64738665D02*
X79684836Y-64833903D01*
X79684836Y-64833903D02*
X79684836Y-65071998D01*
X79684836Y-65071998D02*
X79637217Y-65167236D01*
X79637217Y-65167236D02*
X79589598Y-65214856D01*
X79589598Y-65214856D02*
X79494360Y-65262475D01*
X79494360Y-65262475D02*
X79208646Y-65262475D01*
X79208646Y-65262475D02*
X79113408Y-65214856D01*
X79113408Y-65214856D02*
X79065789Y-65167236D01*
X80541979Y-64595808D02*
X80541979Y-65262475D01*
X80303884Y-64214856D02*
X80065789Y-64929141D01*
X80065789Y-64929141D02*
X80684836Y-64929141D01*
X80970551Y-64262475D02*
X81637217Y-64262475D01*
X81637217Y-64262475D02*
X81208646Y-65262475D01*
X82065789Y-65262475D02*
X82256265Y-65262475D01*
X82256265Y-65262475D02*
X82351503Y-65214856D01*
X82351503Y-65214856D02*
X82399122Y-65167236D01*
X82399122Y-65167236D02*
X82494360Y-65024379D01*
X82494360Y-65024379D02*
X82541979Y-64833903D01*
X82541979Y-64833903D02*
X82541979Y-64452951D01*
X82541979Y-64452951D02*
X82494360Y-64357713D01*
X82494360Y-64357713D02*
X82446741Y-64310094D01*
X82446741Y-64310094D02*
X82351503Y-64262475D01*
X82351503Y-64262475D02*
X82161027Y-64262475D01*
X82161027Y-64262475D02*
X82065789Y-64310094D01*
X82065789Y-64310094D02*
X82018170Y-64357713D01*
X82018170Y-64357713D02*
X81970551Y-64452951D01*
X81970551Y-64452951D02*
X81970551Y-64691046D01*
X81970551Y-64691046D02*
X82018170Y-64786284D01*
X82018170Y-64786284D02*
X82065789Y-64833903D01*
X82065789Y-64833903D02*
X82161027Y-64881522D01*
X82161027Y-64881522D02*
X82351503Y-64881522D01*
X82351503Y-64881522D02*
X82446741Y-64833903D01*
X82446741Y-64833903D02*
X82494360Y-64786284D01*
X82494360Y-64786284D02*
X82541979Y-64691046D01*
X83113408Y-64691046D02*
X83018170Y-64643427D01*
X83018170Y-64643427D02*
X82970551Y-64595808D01*
X82970551Y-64595808D02*
X82922932Y-64500570D01*
X82922932Y-64500570D02*
X82922932Y-64452951D01*
X82922932Y-64452951D02*
X82970551Y-64357713D01*
X82970551Y-64357713D02*
X83018170Y-64310094D01*
X83018170Y-64310094D02*
X83113408Y-64262475D01*
X83113408Y-64262475D02*
X83303884Y-64262475D01*
X83303884Y-64262475D02*
X83399122Y-64310094D01*
X83399122Y-64310094D02*
X83446741Y-64357713D01*
X83446741Y-64357713D02*
X83494360Y-64452951D01*
X83494360Y-64452951D02*
X83494360Y-64500570D01*
X83494360Y-64500570D02*
X83446741Y-64595808D01*
X83446741Y-64595808D02*
X83399122Y-64643427D01*
X83399122Y-64643427D02*
X83303884Y-64691046D01*
X83303884Y-64691046D02*
X83113408Y-64691046D01*
X83113408Y-64691046D02*
X83018170Y-64738665D01*
X83018170Y-64738665D02*
X82970551Y-64786284D01*
X82970551Y-64786284D02*
X82922932Y-64881522D01*
X82922932Y-64881522D02*
X82922932Y-65071998D01*
X82922932Y-65071998D02*
X82970551Y-65167236D01*
X82970551Y-65167236D02*
X83018170Y-65214856D01*
X83018170Y-65214856D02*
X83113408Y-65262475D01*
X83113408Y-65262475D02*
X83303884Y-65262475D01*
X83303884Y-65262475D02*
X83399122Y-65214856D01*
X83399122Y-65214856D02*
X83446741Y-65167236D01*
X83446741Y-65167236D02*
X83494360Y-65071998D01*
X83494360Y-65071998D02*
X83494360Y-64881522D01*
X83494360Y-64881522D02*
X83446741Y-64786284D01*
X83446741Y-64786284D02*
X83399122Y-64738665D01*
X83399122Y-64738665D02*
X83303884Y-64691046D01*
X84399122Y-64262475D02*
X83922932Y-64262475D01*
X83922932Y-64262475D02*
X83875313Y-64738665D01*
X83875313Y-64738665D02*
X83922932Y-64691046D01*
X83922932Y-64691046D02*
X84018170Y-64643427D01*
X84018170Y-64643427D02*
X84256265Y-64643427D01*
X84256265Y-64643427D02*
X84351503Y-64691046D01*
X84351503Y-64691046D02*
X84399122Y-64738665D01*
X84399122Y-64738665D02*
X84446741Y-64833903D01*
X84446741Y-64833903D02*
X84446741Y-65071998D01*
X84446741Y-65071998D02*
X84399122Y-65167236D01*
X84399122Y-65167236D02*
X84351503Y-65214856D01*
X84351503Y-65214856D02*
X84256265Y-65262475D01*
X84256265Y-65262475D02*
X84018170Y-65262475D01*
X84018170Y-65262475D02*
X83922932Y-65214856D01*
X83922932Y-65214856D02*
X83875313Y-65167236D01*
X85018170Y-64691046D02*
X84922932Y-64643427D01*
X84922932Y-64643427D02*
X84875313Y-64595808D01*
X84875313Y-64595808D02*
X84827694Y-64500570D01*
X84827694Y-64500570D02*
X84827694Y-64452951D01*
X84827694Y-64452951D02*
X84875313Y-64357713D01*
X84875313Y-64357713D02*
X84922932Y-64310094D01*
X84922932Y-64310094D02*
X85018170Y-64262475D01*
X85018170Y-64262475D02*
X85208646Y-64262475D01*
X85208646Y-64262475D02*
X85303884Y-64310094D01*
X85303884Y-64310094D02*
X85351503Y-64357713D01*
X85351503Y-64357713D02*
X85399122Y-64452951D01*
X85399122Y-64452951D02*
X85399122Y-64500570D01*
X85399122Y-64500570D02*
X85351503Y-64595808D01*
X85351503Y-64595808D02*
X85303884Y-64643427D01*
X85303884Y-64643427D02*
X85208646Y-64691046D01*
X85208646Y-64691046D02*
X85018170Y-64691046D01*
X85018170Y-64691046D02*
X84922932Y-64738665D01*
X84922932Y-64738665D02*
X84875313Y-64786284D01*
X84875313Y-64786284D02*
X84827694Y-64881522D01*
X84827694Y-64881522D02*
X84827694Y-65071998D01*
X84827694Y-65071998D02*
X84875313Y-65167236D01*
X84875313Y-65167236D02*
X84922932Y-65214856D01*
X84922932Y-65214856D02*
X85018170Y-65262475D01*
X85018170Y-65262475D02*
X85208646Y-65262475D01*
X85208646Y-65262475D02*
X85303884Y-65214856D01*
X85303884Y-65214856D02*
X85351503Y-65167236D01*
X85351503Y-65167236D02*
X85399122Y-65071998D01*
X85399122Y-65071998D02*
X85399122Y-64881522D01*
X85399122Y-64881522D02*
X85351503Y-64786284D01*
X85351503Y-64786284D02*
X85303884Y-64738665D01*
X85303884Y-64738665D02*
X85208646Y-64691046D01*
X78827693Y-66872419D02*
X78256265Y-66872419D01*
X78541979Y-66872419D02*
X78541979Y-65872419D01*
X78541979Y-65872419D02*
X78446741Y-66015276D01*
X78446741Y-66015276D02*
X78351503Y-66110514D01*
X78351503Y-66110514D02*
X78256265Y-66158133D01*
X79732455Y-65872419D02*
X79256265Y-65872419D01*
X79256265Y-65872419D02*
X79208646Y-66348609D01*
X79208646Y-66348609D02*
X79256265Y-66300990D01*
X79256265Y-66300990D02*
X79351503Y-66253371D01*
X79351503Y-66253371D02*
X79589598Y-66253371D01*
X79589598Y-66253371D02*
X79684836Y-66300990D01*
X79684836Y-66300990D02*
X79732455Y-66348609D01*
X79732455Y-66348609D02*
X79780074Y-66443847D01*
X79780074Y-66443847D02*
X79780074Y-66681942D01*
X79780074Y-66681942D02*
X79732455Y-66777180D01*
X79732455Y-66777180D02*
X79684836Y-66824800D01*
X79684836Y-66824800D02*
X79589598Y-66872419D01*
X79589598Y-66872419D02*
X79351503Y-66872419D01*
X79351503Y-66872419D02*
X79256265Y-66824800D01*
X79256265Y-66824800D02*
X79208646Y-66777180D01*
X80922931Y-65824800D02*
X80065789Y-67110514D01*
X81446741Y-65872419D02*
X81541979Y-65872419D01*
X81541979Y-65872419D02*
X81637217Y-65920038D01*
X81637217Y-65920038D02*
X81684836Y-65967657D01*
X81684836Y-65967657D02*
X81732455Y-66062895D01*
X81732455Y-66062895D02*
X81780074Y-66253371D01*
X81780074Y-66253371D02*
X81780074Y-66491466D01*
X81780074Y-66491466D02*
X81732455Y-66681942D01*
X81732455Y-66681942D02*
X81684836Y-66777180D01*
X81684836Y-66777180D02*
X81637217Y-66824800D01*
X81637217Y-66824800D02*
X81541979Y-66872419D01*
X81541979Y-66872419D02*
X81446741Y-66872419D01*
X81446741Y-66872419D02*
X81351503Y-66824800D01*
X81351503Y-66824800D02*
X81303884Y-66777180D01*
X81303884Y-66777180D02*
X81256265Y-66681942D01*
X81256265Y-66681942D02*
X81208646Y-66491466D01*
X81208646Y-66491466D02*
X81208646Y-66253371D01*
X81208646Y-66253371D02*
X81256265Y-66062895D01*
X81256265Y-66062895D02*
X81303884Y-65967657D01*
X81303884Y-65967657D02*
X81351503Y-65920038D01*
X81351503Y-65920038D02*
X81446741Y-65872419D01*
X82351503Y-66300990D02*
X82256265Y-66253371D01*
X82256265Y-66253371D02*
X82208646Y-66205752D01*
X82208646Y-66205752D02*
X82161027Y-66110514D01*
X82161027Y-66110514D02*
X82161027Y-66062895D01*
X82161027Y-66062895D02*
X82208646Y-65967657D01*
X82208646Y-65967657D02*
X82256265Y-65920038D01*
X82256265Y-65920038D02*
X82351503Y-65872419D01*
X82351503Y-65872419D02*
X82541979Y-65872419D01*
X82541979Y-65872419D02*
X82637217Y-65920038D01*
X82637217Y-65920038D02*
X82684836Y-65967657D01*
X82684836Y-65967657D02*
X82732455Y-66062895D01*
X82732455Y-66062895D02*
X82732455Y-66110514D01*
X82732455Y-66110514D02*
X82684836Y-66205752D01*
X82684836Y-66205752D02*
X82637217Y-66253371D01*
X82637217Y-66253371D02*
X82541979Y-66300990D01*
X82541979Y-66300990D02*
X82351503Y-66300990D01*
X82351503Y-66300990D02*
X82256265Y-66348609D01*
X82256265Y-66348609D02*
X82208646Y-66396228D01*
X82208646Y-66396228D02*
X82161027Y-66491466D01*
X82161027Y-66491466D02*
X82161027Y-66681942D01*
X82161027Y-66681942D02*
X82208646Y-66777180D01*
X82208646Y-66777180D02*
X82256265Y-66824800D01*
X82256265Y-66824800D02*
X82351503Y-66872419D01*
X82351503Y-66872419D02*
X82541979Y-66872419D01*
X82541979Y-66872419D02*
X82637217Y-66824800D01*
X82637217Y-66824800D02*
X82684836Y-66777180D01*
X82684836Y-66777180D02*
X82732455Y-66681942D01*
X82732455Y-66681942D02*
X82732455Y-66491466D01*
X82732455Y-66491466D02*
X82684836Y-66396228D01*
X82684836Y-66396228D02*
X82637217Y-66348609D01*
X82637217Y-66348609D02*
X82541979Y-66300990D01*
X83875312Y-65824800D02*
X83018170Y-67110514D01*
X84161027Y-65967657D02*
X84208646Y-65920038D01*
X84208646Y-65920038D02*
X84303884Y-65872419D01*
X84303884Y-65872419D02*
X84541979Y-65872419D01*
X84541979Y-65872419D02*
X84637217Y-65920038D01*
X84637217Y-65920038D02*
X84684836Y-65967657D01*
X84684836Y-65967657D02*
X84732455Y-66062895D01*
X84732455Y-66062895D02*
X84732455Y-66158133D01*
X84732455Y-66158133D02*
X84684836Y-66300990D01*
X84684836Y-66300990D02*
X84113408Y-66872419D01*
X84113408Y-66872419D02*
X84732455Y-66872419D01*
X85351503Y-65872419D02*
X85446741Y-65872419D01*
X85446741Y-65872419D02*
X85541979Y-65920038D01*
X85541979Y-65920038D02*
X85589598Y-65967657D01*
X85589598Y-65967657D02*
X85637217Y-66062895D01*
X85637217Y-66062895D02*
X85684836Y-66253371D01*
X85684836Y-66253371D02*
X85684836Y-66491466D01*
X85684836Y-66491466D02*
X85637217Y-66681942D01*
X85637217Y-66681942D02*
X85589598Y-66777180D01*
X85589598Y-66777180D02*
X85541979Y-66824800D01*
X85541979Y-66824800D02*
X85446741Y-66872419D01*
X85446741Y-66872419D02*
X85351503Y-66872419D01*
X85351503Y-66872419D02*
X85256265Y-66824800D01*
X85256265Y-66824800D02*
X85208646Y-66777180D01*
X85208646Y-66777180D02*
X85161027Y-66681942D01*
X85161027Y-66681942D02*
X85113408Y-66491466D01*
X85113408Y-66491466D02*
X85113408Y-66253371D01*
X85113408Y-66253371D02*
X85161027Y-66062895D01*
X85161027Y-66062895D02*
X85208646Y-65967657D01*
X85208646Y-65967657D02*
X85256265Y-65920038D01*
X85256265Y-65920038D02*
X85351503Y-65872419D01*
X86065789Y-65967657D02*
X86113408Y-65920038D01*
X86113408Y-65920038D02*
X86208646Y-65872419D01*
X86208646Y-65872419D02*
X86446741Y-65872419D01*
X86446741Y-65872419D02*
X86541979Y-65920038D01*
X86541979Y-65920038D02*
X86589598Y-65967657D01*
X86589598Y-65967657D02*
X86637217Y-66062895D01*
X86637217Y-66062895D02*
X86637217Y-66158133D01*
X86637217Y-66158133D02*
X86589598Y-66300990D01*
X86589598Y-66300990D02*
X86018170Y-66872419D01*
X86018170Y-66872419D02*
X86637217Y-66872419D01*
X87494360Y-65872419D02*
X87303884Y-65872419D01*
X87303884Y-65872419D02*
X87208646Y-65920038D01*
X87208646Y-65920038D02*
X87161027Y-65967657D01*
X87161027Y-65967657D02*
X87065789Y-66110514D01*
X87065789Y-66110514D02*
X87018170Y-66300990D01*
X87018170Y-66300990D02*
X87018170Y-66681942D01*
X87018170Y-66681942D02*
X87065789Y-66777180D01*
X87065789Y-66777180D02*
X87113408Y-66824800D01*
X87113408Y-66824800D02*
X87208646Y-66872419D01*
X87208646Y-66872419D02*
X87399122Y-66872419D01*
X87399122Y-66872419D02*
X87494360Y-66824800D01*
X87494360Y-66824800D02*
X87541979Y-66777180D01*
X87541979Y-66777180D02*
X87589598Y-66681942D01*
X87589598Y-66681942D02*
X87589598Y-66443847D01*
X87589598Y-66443847D02*
X87541979Y-66348609D01*
X87541979Y-66348609D02*
X87494360Y-66300990D01*
X87494360Y-66300990D02*
X87399122Y-66253371D01*
X87399122Y-66253371D02*
X87208646Y-66253371D01*
X87208646Y-66253371D02*
X87113408Y-66300990D01*
X87113408Y-66300990D02*
X87065789Y-66348609D01*
X87065789Y-66348609D02*
X87018170Y-66443847D01*
D11*
X101289580Y-91996666D02*
X101337200Y-92044285D01*
X101337200Y-92044285D02*
X101384819Y-92187142D01*
X101384819Y-92187142D02*
X101384819Y-92282380D01*
X101384819Y-92282380D02*
X101337200Y-92425237D01*
X101337200Y-92425237D02*
X101241961Y-92520475D01*
X101241961Y-92520475D02*
X101146723Y-92568094D01*
X101146723Y-92568094D02*
X100956247Y-92615713D01*
X100956247Y-92615713D02*
X100813390Y-92615713D01*
X100813390Y-92615713D02*
X100622914Y-92568094D01*
X100622914Y-92568094D02*
X100527676Y-92520475D01*
X100527676Y-92520475D02*
X100432438Y-92425237D01*
X100432438Y-92425237D02*
X100384819Y-92282380D01*
X100384819Y-92282380D02*
X100384819Y-92187142D01*
X100384819Y-92187142D02*
X100432438Y-92044285D01*
X100432438Y-92044285D02*
X100480057Y-91996666D01*
X101384819Y-91044285D02*
X101384819Y-91615713D01*
X101384819Y-91329999D02*
X100384819Y-91329999D01*
X100384819Y-91329999D02*
X100527676Y-91425237D01*
X100527676Y-91425237D02*
X100622914Y-91520475D01*
X100622914Y-91520475D02*
X100670533Y-91615713D01*
X94738095Y-94954819D02*
X94738095Y-95764342D01*
X94738095Y-95764342D02*
X94785714Y-95859580D01*
X94785714Y-95859580D02*
X94833333Y-95907200D01*
X94833333Y-95907200D02*
X94928571Y-95954819D01*
X94928571Y-95954819D02*
X95119047Y-95954819D01*
X95119047Y-95954819D02*
X95214285Y-95907200D01*
X95214285Y-95907200D02*
X95261904Y-95859580D01*
X95261904Y-95859580D02*
X95309523Y-95764342D01*
X95309523Y-95764342D02*
X95309523Y-94954819D01*
X96309523Y-95954819D02*
X95738095Y-95954819D01*
X96023809Y-95954819D02*
X96023809Y-94954819D01*
X96023809Y-94954819D02*
X95928571Y-95097676D01*
X95928571Y-95097676D02*
X95833333Y-95192914D01*
X95833333Y-95192914D02*
X95738095Y-95240533D01*
X104666666Y-79534819D02*
X104666666Y-80249104D01*
X104666666Y-80249104D02*
X104619047Y-80391961D01*
X104619047Y-80391961D02*
X104523809Y-80487200D01*
X104523809Y-80487200D02*
X104380952Y-80534819D01*
X104380952Y-80534819D02*
X104285714Y-80534819D01*
X105666666Y-80534819D02*
X105095238Y-80534819D01*
X105380952Y-80534819D02*
X105380952Y-79534819D01*
X105380952Y-79534819D02*
X105285714Y-79677676D01*
X105285714Y-79677676D02*
X105190476Y-79772914D01*
X105190476Y-79772914D02*
X105095238Y-79820533D01*
X56261905Y-96454819D02*
X56261905Y-95454819D01*
X56261905Y-95454819D02*
X56500000Y-95454819D01*
X56500000Y-95454819D02*
X56642857Y-95502438D01*
X56642857Y-95502438D02*
X56738095Y-95597676D01*
X56738095Y-95597676D02*
X56785714Y-95692914D01*
X56785714Y-95692914D02*
X56833333Y-95883390D01*
X56833333Y-95883390D02*
X56833333Y-96026247D01*
X56833333Y-96026247D02*
X56785714Y-96216723D01*
X56785714Y-96216723D02*
X56738095Y-96311961D01*
X56738095Y-96311961D02*
X56642857Y-96407200D01*
X56642857Y-96407200D02*
X56500000Y-96454819D01*
X56500000Y-96454819D02*
X56261905Y-96454819D01*
X57690476Y-95788152D02*
X57690476Y-96454819D01*
X57452381Y-95407200D02*
X57214286Y-96121485D01*
X57214286Y-96121485D02*
X57833333Y-96121485D01*
X70704819Y-102045238D02*
X70228628Y-102378571D01*
X70704819Y-102616666D02*
X69704819Y-102616666D01*
X69704819Y-102616666D02*
X69704819Y-102235714D01*
X69704819Y-102235714D02*
X69752438Y-102140476D01*
X69752438Y-102140476D02*
X69800057Y-102092857D01*
X69800057Y-102092857D02*
X69895295Y-102045238D01*
X69895295Y-102045238D02*
X70038152Y-102045238D01*
X70038152Y-102045238D02*
X70133390Y-102092857D01*
X70133390Y-102092857D02*
X70181009Y-102140476D01*
X70181009Y-102140476D02*
X70228628Y-102235714D01*
X70228628Y-102235714D02*
X70228628Y-102616666D01*
X69704819Y-101759523D02*
X70704819Y-101426190D01*
X70704819Y-101426190D02*
X69704819Y-101092857D01*
X70704819Y-100235714D02*
X70704819Y-100807142D01*
X70704819Y-100521428D02*
X69704819Y-100521428D01*
X69704819Y-100521428D02*
X69847676Y-100616666D01*
X69847676Y-100616666D02*
X69942914Y-100711904D01*
X69942914Y-100711904D02*
X69990533Y-100807142D01*
X91463333Y-100359580D02*
X91415714Y-100407200D01*
X91415714Y-100407200D02*
X91272857Y-100454819D01*
X91272857Y-100454819D02*
X91177619Y-100454819D01*
X91177619Y-100454819D02*
X91034762Y-100407200D01*
X91034762Y-100407200D02*
X90939524Y-100311961D01*
X90939524Y-100311961D02*
X90891905Y-100216723D01*
X90891905Y-100216723D02*
X90844286Y-100026247D01*
X90844286Y-100026247D02*
X90844286Y-99883390D01*
X90844286Y-99883390D02*
X90891905Y-99692914D01*
X90891905Y-99692914D02*
X90939524Y-99597676D01*
X90939524Y-99597676D02*
X91034762Y-99502438D01*
X91034762Y-99502438D02*
X91177619Y-99454819D01*
X91177619Y-99454819D02*
X91272857Y-99454819D01*
X91272857Y-99454819D02*
X91415714Y-99502438D01*
X91415714Y-99502438D02*
X91463333Y-99550057D01*
X91844286Y-99550057D02*
X91891905Y-99502438D01*
X91891905Y-99502438D02*
X91987143Y-99454819D01*
X91987143Y-99454819D02*
X92225238Y-99454819D01*
X92225238Y-99454819D02*
X92320476Y-99502438D01*
X92320476Y-99502438D02*
X92368095Y-99550057D01*
X92368095Y-99550057D02*
X92415714Y-99645295D01*
X92415714Y-99645295D02*
X92415714Y-99740533D01*
X92415714Y-99740533D02*
X92368095Y-99883390D01*
X92368095Y-99883390D02*
X91796667Y-100454819D01*
X91796667Y-100454819D02*
X92415714Y-100454819D01*
X81333333Y-75954819D02*
X81000000Y-75478628D01*
X80761905Y-75954819D02*
X80761905Y-74954819D01*
X80761905Y-74954819D02*
X81142857Y-74954819D01*
X81142857Y-74954819D02*
X81238095Y-75002438D01*
X81238095Y-75002438D02*
X81285714Y-75050057D01*
X81285714Y-75050057D02*
X81333333Y-75145295D01*
X81333333Y-75145295D02*
X81333333Y-75288152D01*
X81333333Y-75288152D02*
X81285714Y-75383390D01*
X81285714Y-75383390D02*
X81238095Y-75431009D01*
X81238095Y-75431009D02*
X81142857Y-75478628D01*
X81142857Y-75478628D02*
X80761905Y-75478628D01*
X81714286Y-75050057D02*
X81761905Y-75002438D01*
X81761905Y-75002438D02*
X81857143Y-74954819D01*
X81857143Y-74954819D02*
X82095238Y-74954819D01*
X82095238Y-74954819D02*
X82190476Y-75002438D01*
X82190476Y-75002438D02*
X82238095Y-75050057D01*
X82238095Y-75050057D02*
X82285714Y-75145295D01*
X82285714Y-75145295D02*
X82285714Y-75240533D01*
X82285714Y-75240533D02*
X82238095Y-75383390D01*
X82238095Y-75383390D02*
X81666667Y-75954819D01*
X81666667Y-75954819D02*
X82285714Y-75954819D01*
X66738095Y-79954819D02*
X66738095Y-80764342D01*
X66738095Y-80764342D02*
X66785714Y-80859580D01*
X66785714Y-80859580D02*
X66833333Y-80907200D01*
X66833333Y-80907200D02*
X66928571Y-80954819D01*
X66928571Y-80954819D02*
X67119047Y-80954819D01*
X67119047Y-80954819D02*
X67214285Y-80907200D01*
X67214285Y-80907200D02*
X67261904Y-80859580D01*
X67261904Y-80859580D02*
X67309523Y-80764342D01*
X67309523Y-80764342D02*
X67309523Y-79954819D01*
X67738095Y-80050057D02*
X67785714Y-80002438D01*
X67785714Y-80002438D02*
X67880952Y-79954819D01*
X67880952Y-79954819D02*
X68119047Y-79954819D01*
X68119047Y-79954819D02*
X68214285Y-80002438D01*
X68214285Y-80002438D02*
X68261904Y-80050057D01*
X68261904Y-80050057D02*
X68309523Y-80145295D01*
X68309523Y-80145295D02*
X68309523Y-80240533D01*
X68309523Y-80240533D02*
X68261904Y-80383390D01*
X68261904Y-80383390D02*
X67690476Y-80954819D01*
X67690476Y-80954819D02*
X68309523Y-80954819D01*
X61774819Y-84333333D02*
X62489104Y-84333333D01*
X62489104Y-84333333D02*
X62631961Y-84380952D01*
X62631961Y-84380952D02*
X62727200Y-84476190D01*
X62727200Y-84476190D02*
X62774819Y-84619047D01*
X62774819Y-84619047D02*
X62774819Y-84714285D01*
X61870057Y-83904761D02*
X61822438Y-83857142D01*
X61822438Y-83857142D02*
X61774819Y-83761904D01*
X61774819Y-83761904D02*
X61774819Y-83523809D01*
X61774819Y-83523809D02*
X61822438Y-83428571D01*
X61822438Y-83428571D02*
X61870057Y-83380952D01*
X61870057Y-83380952D02*
X61965295Y-83333333D01*
X61965295Y-83333333D02*
X62060533Y-83333333D01*
X62060533Y-83333333D02*
X62203390Y-83380952D01*
X62203390Y-83380952D02*
X62774819Y-83952380D01*
X62774819Y-83952380D02*
X62774819Y-83333333D01*
X67333333Y-79039580D02*
X67285714Y-79087200D01*
X67285714Y-79087200D02*
X67142857Y-79134819D01*
X67142857Y-79134819D02*
X67047619Y-79134819D01*
X67047619Y-79134819D02*
X66904762Y-79087200D01*
X66904762Y-79087200D02*
X66809524Y-78991961D01*
X66809524Y-78991961D02*
X66761905Y-78896723D01*
X66761905Y-78896723D02*
X66714286Y-78706247D01*
X66714286Y-78706247D02*
X66714286Y-78563390D01*
X66714286Y-78563390D02*
X66761905Y-78372914D01*
X66761905Y-78372914D02*
X66809524Y-78277676D01*
X66809524Y-78277676D02*
X66904762Y-78182438D01*
X66904762Y-78182438D02*
X67047619Y-78134819D01*
X67047619Y-78134819D02*
X67142857Y-78134819D01*
X67142857Y-78134819D02*
X67285714Y-78182438D01*
X67285714Y-78182438D02*
X67333333Y-78230057D01*
X67666667Y-78134819D02*
X68285714Y-78134819D01*
X68285714Y-78134819D02*
X67952381Y-78515771D01*
X67952381Y-78515771D02*
X68095238Y-78515771D01*
X68095238Y-78515771D02*
X68190476Y-78563390D01*
X68190476Y-78563390D02*
X68238095Y-78611009D01*
X68238095Y-78611009D02*
X68285714Y-78706247D01*
X68285714Y-78706247D02*
X68285714Y-78944342D01*
X68285714Y-78944342D02*
X68238095Y-79039580D01*
X68238095Y-79039580D02*
X68190476Y-79087200D01*
X68190476Y-79087200D02*
X68095238Y-79134819D01*
X68095238Y-79134819D02*
X67809524Y-79134819D01*
X67809524Y-79134819D02*
X67714286Y-79087200D01*
X67714286Y-79087200D02*
X67666667Y-79039580D01*
X81333333Y-78454819D02*
X81000000Y-77978628D01*
X80761905Y-78454819D02*
X80761905Y-77454819D01*
X80761905Y-77454819D02*
X81142857Y-77454819D01*
X81142857Y-77454819D02*
X81238095Y-77502438D01*
X81238095Y-77502438D02*
X81285714Y-77550057D01*
X81285714Y-77550057D02*
X81333333Y-77645295D01*
X81333333Y-77645295D02*
X81333333Y-77788152D01*
X81333333Y-77788152D02*
X81285714Y-77883390D01*
X81285714Y-77883390D02*
X81238095Y-77931009D01*
X81238095Y-77931009D02*
X81142857Y-77978628D01*
X81142857Y-77978628D02*
X80761905Y-77978628D01*
X82285714Y-78454819D02*
X81714286Y-78454819D01*
X82000000Y-78454819D02*
X82000000Y-77454819D01*
X82000000Y-77454819D02*
X81904762Y-77597676D01*
X81904762Y-77597676D02*
X81809524Y-77692914D01*
X81809524Y-77692914D02*
X81714286Y-77740533D01*
X72333333Y-92454819D02*
X72000000Y-91978628D01*
X71761905Y-92454819D02*
X71761905Y-91454819D01*
X71761905Y-91454819D02*
X72142857Y-91454819D01*
X72142857Y-91454819D02*
X72238095Y-91502438D01*
X72238095Y-91502438D02*
X72285714Y-91550057D01*
X72285714Y-91550057D02*
X72333333Y-91645295D01*
X72333333Y-91645295D02*
X72333333Y-91788152D01*
X72333333Y-91788152D02*
X72285714Y-91883390D01*
X72285714Y-91883390D02*
X72238095Y-91931009D01*
X72238095Y-91931009D02*
X72142857Y-91978628D01*
X72142857Y-91978628D02*
X71761905Y-91978628D01*
X73190476Y-91788152D02*
X73190476Y-92454819D01*
X72952381Y-91407200D02*
X72714286Y-92121485D01*
X72714286Y-92121485D02*
X73333333Y-92121485D01*
X80761905Y-81454819D02*
X80761905Y-80454819D01*
X80761905Y-80454819D02*
X81000000Y-80454819D01*
X81000000Y-80454819D02*
X81142857Y-80502438D01*
X81142857Y-80502438D02*
X81238095Y-80597676D01*
X81238095Y-80597676D02*
X81285714Y-80692914D01*
X81285714Y-80692914D02*
X81333333Y-80883390D01*
X81333333Y-80883390D02*
X81333333Y-81026247D01*
X81333333Y-81026247D02*
X81285714Y-81216723D01*
X81285714Y-81216723D02*
X81238095Y-81311961D01*
X81238095Y-81311961D02*
X81142857Y-81407200D01*
X81142857Y-81407200D02*
X81000000Y-81454819D01*
X81000000Y-81454819D02*
X80761905Y-81454819D01*
X82285714Y-81454819D02*
X81714286Y-81454819D01*
X82000000Y-81454819D02*
X82000000Y-80454819D01*
X82000000Y-80454819D02*
X81904762Y-80597676D01*
X81904762Y-80597676D02*
X81809524Y-80692914D01*
X81809524Y-80692914D02*
X81714286Y-80740533D01*
X82738095Y-83454819D02*
X82738095Y-82454819D01*
X83309523Y-83454819D02*
X82880952Y-82883390D01*
X83309523Y-82454819D02*
X82738095Y-83026247D01*
X67261905Y-97454819D02*
X67261905Y-96454819D01*
X67261905Y-96454819D02*
X67500000Y-96454819D01*
X67500000Y-96454819D02*
X67642857Y-96502438D01*
X67642857Y-96502438D02*
X67738095Y-96597676D01*
X67738095Y-96597676D02*
X67785714Y-96692914D01*
X67785714Y-96692914D02*
X67833333Y-96883390D01*
X67833333Y-96883390D02*
X67833333Y-97026247D01*
X67833333Y-97026247D02*
X67785714Y-97216723D01*
X67785714Y-97216723D02*
X67738095Y-97311961D01*
X67738095Y-97311961D02*
X67642857Y-97407200D01*
X67642857Y-97407200D02*
X67500000Y-97454819D01*
X67500000Y-97454819D02*
X67261905Y-97454819D01*
X68166667Y-96454819D02*
X68785714Y-96454819D01*
X68785714Y-96454819D02*
X68452381Y-96835771D01*
X68452381Y-96835771D02*
X68595238Y-96835771D01*
X68595238Y-96835771D02*
X68690476Y-96883390D01*
X68690476Y-96883390D02*
X68738095Y-96931009D01*
X68738095Y-96931009D02*
X68785714Y-97026247D01*
X68785714Y-97026247D02*
X68785714Y-97264342D01*
X68785714Y-97264342D02*
X68738095Y-97359580D01*
X68738095Y-97359580D02*
X68690476Y-97407200D01*
X68690476Y-97407200D02*
X68595238Y-97454819D01*
X68595238Y-97454819D02*
X68309524Y-97454819D01*
X68309524Y-97454819D02*
X68214286Y-97407200D01*
X68214286Y-97407200D02*
X68166667Y-97359580D01*
X60454819Y-73166666D02*
X59978628Y-73499999D01*
X60454819Y-73738094D02*
X59454819Y-73738094D01*
X59454819Y-73738094D02*
X59454819Y-73357142D01*
X59454819Y-73357142D02*
X59502438Y-73261904D01*
X59502438Y-73261904D02*
X59550057Y-73214285D01*
X59550057Y-73214285D02*
X59645295Y-73166666D01*
X59645295Y-73166666D02*
X59788152Y-73166666D01*
X59788152Y-73166666D02*
X59883390Y-73214285D01*
X59883390Y-73214285D02*
X59931009Y-73261904D01*
X59931009Y-73261904D02*
X59978628Y-73357142D01*
X59978628Y-73357142D02*
X59978628Y-73738094D01*
X59454819Y-72833332D02*
X59454819Y-72214285D01*
X59454819Y-72214285D02*
X59835771Y-72547618D01*
X59835771Y-72547618D02*
X59835771Y-72404761D01*
X59835771Y-72404761D02*
X59883390Y-72309523D01*
X59883390Y-72309523D02*
X59931009Y-72261904D01*
X59931009Y-72261904D02*
X60026247Y-72214285D01*
X60026247Y-72214285D02*
X60264342Y-72214285D01*
X60264342Y-72214285D02*
X60359580Y-72261904D01*
X60359580Y-72261904D02*
X60407200Y-72309523D01*
X60407200Y-72309523D02*
X60454819Y-72404761D01*
X60454819Y-72404761D02*
X60454819Y-72690475D01*
X60454819Y-72690475D02*
X60407200Y-72785713D01*
X60407200Y-72785713D02*
X60359580Y-72833332D01*
X66991905Y-68494819D02*
X66991905Y-67494819D01*
X66991905Y-67494819D02*
X67230000Y-67494819D01*
X67230000Y-67494819D02*
X67372857Y-67542438D01*
X67372857Y-67542438D02*
X67468095Y-67637676D01*
X67468095Y-67637676D02*
X67515714Y-67732914D01*
X67515714Y-67732914D02*
X67563333Y-67923390D01*
X67563333Y-67923390D02*
X67563333Y-68066247D01*
X67563333Y-68066247D02*
X67515714Y-68256723D01*
X67515714Y-68256723D02*
X67468095Y-68351961D01*
X67468095Y-68351961D02*
X67372857Y-68447200D01*
X67372857Y-68447200D02*
X67230000Y-68494819D01*
X67230000Y-68494819D02*
X66991905Y-68494819D01*
X67944286Y-67590057D02*
X67991905Y-67542438D01*
X67991905Y-67542438D02*
X68087143Y-67494819D01*
X68087143Y-67494819D02*
X68325238Y-67494819D01*
X68325238Y-67494819D02*
X68420476Y-67542438D01*
X68420476Y-67542438D02*
X68468095Y-67590057D01*
X68468095Y-67590057D02*
X68515714Y-67685295D01*
X68515714Y-67685295D02*
X68515714Y-67780533D01*
X68515714Y-67780533D02*
X68468095Y-67923390D01*
X68468095Y-67923390D02*
X67896667Y-68494819D01*
X67896667Y-68494819D02*
X68515714Y-68494819D01*
%TO.C,C1*%
D12*
X96960000Y-89810000D02*
X97681000Y-89810000D01*
X96960000Y-93850000D02*
X96960000Y-89810000D01*
X97681000Y-93850000D02*
X96960000Y-93850000D01*
X99079000Y-89810000D02*
X99800000Y-89810000D01*
X99800000Y-89810000D02*
X99800000Y-93850000D01*
X99800000Y-93850000D02*
X99079000Y-93850000D01*
%TO.C,U1*%
X89040000Y-84130000D02*
X89040000Y-94410000D01*
X89040000Y-94410000D02*
X90690000Y-94410000D01*
X92690000Y-94410000D02*
X94340000Y-94410000D01*
X94340000Y-84130000D02*
X89040000Y-84130000D01*
X94340000Y-94410000D02*
X94340000Y-84130000D01*
X90690000Y-94410000D02*
G75*
G02*
X92690000Y-94410000I1000000J0D01*
G01*
%TO.C,J1*%
X103620000Y-81080000D02*
X105000000Y-81080000D01*
X103620000Y-82460000D02*
X103620000Y-81080000D01*
X103620000Y-83730000D02*
X103620000Y-88920000D01*
X103620000Y-83730000D02*
X106380000Y-83730000D01*
X103620000Y-88920000D02*
X106380000Y-88920000D01*
X106380000Y-83730000D02*
X106380000Y-88920000D01*
%TO.C,D4*%
X61510000Y-91850000D02*
X54500000Y-91850000D01*
X61510000Y-95150000D02*
X54500000Y-95150000D01*
X61510000Y-95150000D02*
X61510000Y-91850000D01*
%TO.C,RV1*%
X73140000Y-94390000D02*
X83060000Y-94390000D01*
X73140000Y-98135000D02*
X73140000Y-94390000D01*
X73140000Y-106610000D02*
X73140000Y-102865000D01*
X74904000Y-106610000D02*
X73140000Y-106610000D01*
X77404000Y-106610000D02*
X76296000Y-106610000D01*
X79904000Y-106610000D02*
X78796000Y-106610000D01*
X83060000Y-94390000D02*
X83060000Y-98135000D01*
X83060000Y-102865000D02*
X83060000Y-106610000D01*
X83060000Y-106610000D02*
X81296000Y-106610000D01*
%TO.C,C2*%
X89610000Y-96160000D02*
X93650000Y-96160000D01*
X89610000Y-96881000D02*
X89610000Y-96160000D01*
X89610000Y-99000000D02*
X89610000Y-98279000D01*
X93650000Y-96160000D02*
X93650000Y-96881000D01*
X93650000Y-98279000D02*
X93650000Y-99000000D01*
X93650000Y-99000000D02*
X89610000Y-99000000D01*
%TO.C,R2*%
X84700000Y-75580000D02*
X85650000Y-75580000D01*
X90440000Y-75580000D02*
X89490000Y-75580000D01*
X85650000Y-74660000D02*
X89490000Y-74660000D01*
X89490000Y-76500000D01*
X85650000Y-76500000D01*
X85650000Y-74660000D01*
%TO.C,U2*%
X66500000Y-81590000D02*
X70260000Y-81590000D01*
X66500000Y-88410000D02*
X70260000Y-88410000D01*
X70260000Y-81590000D02*
X70260000Y-82850000D01*
X70260000Y-88410000D02*
X70260000Y-87150000D01*
X65220000Y-81690000D02*
X64980000Y-81360000D01*
X65460000Y-81360000D01*
X65220000Y-81690000D01*
G36*
X65220000Y-81690000D02*
G01*
X64980000Y-81360000D01*
X65460000Y-81360000D01*
X65220000Y-81690000D01*
G37*
%TO.C,J2*%
X51280000Y-78880000D02*
X61320000Y-78880000D01*
X51280000Y-81200000D02*
X51280000Y-78880000D01*
X51280000Y-89120000D02*
X51280000Y-81800000D01*
X51900000Y-78880000D02*
X51900000Y-89120000D01*
X53400000Y-78880000D02*
X53400000Y-89120000D01*
X58300000Y-78880000D02*
X58300000Y-89120000D01*
X61320000Y-78880000D02*
X61320000Y-89120000D01*
X61320000Y-89120000D02*
X51280000Y-89120000D01*
X51280000Y-81500000D02*
X50670000Y-81940000D01*
X50670000Y-81060000D01*
X51280000Y-81500000D01*
G36*
X51280000Y-81500000D02*
G01*
X50670000Y-81940000D01*
X50670000Y-81060000D01*
X51280000Y-81500000D01*
G37*
%TO.C,C3*%
X67761252Y-76265000D02*
X67238748Y-76265000D01*
X67761252Y-77735000D02*
X67238748Y-77735000D01*
%TO.C,R1*%
X84820000Y-78080000D02*
X85770000Y-78080000D01*
X90560000Y-78080000D02*
X89610000Y-78080000D01*
X85770000Y-77160000D02*
X89610000Y-77160000D01*
X89610000Y-79000000D01*
X85770000Y-79000000D01*
X85770000Y-77160000D01*
%TO.C,R4*%
X69177064Y-91090000D02*
X67722936Y-91090000D01*
X69177064Y-92910000D02*
X67722936Y-92910000D01*
%TO.C,D1*%
X84920000Y-81080000D02*
X85570000Y-81080000D01*
X86170000Y-79960000D02*
X86170000Y-82200000D01*
X86290000Y-79960000D02*
X86290000Y-82200000D01*
X86410000Y-79960000D02*
X86410000Y-82200000D01*
X90460000Y-81080000D02*
X89810000Y-81080000D01*
X85570000Y-79960000D02*
X89810000Y-79960000D01*
X89810000Y-82200000D01*
X85570000Y-82200000D01*
X85570000Y-79960000D01*
%TO.C,D3*%
X66975000Y-95960000D02*
X69835000Y-95960000D01*
X69835000Y-94040000D02*
X66975000Y-94040000D01*
X69835000Y-95960000D02*
X69835000Y-94040000D01*
%TO.C,R3*%
X62000000Y-70320000D02*
X62000000Y-71270000D01*
X62000000Y-76060000D02*
X62000000Y-75110000D01*
X61080000Y-71270000D02*
X62920000Y-71270000D01*
X62920000Y-75110000D01*
X61080000Y-75110000D01*
X61080000Y-71270000D01*
%TO.C,D2*%
X65170000Y-70455000D02*
X65170000Y-73545000D01*
X65170000Y-70455170D02*
G75*
G02*
X70720000Y-72000000I2560000J-1544830D01*
G01*
X70720000Y-72000000D02*
G75*
G02*
X65170000Y-73544830I-2990000J0D01*
G01*
X70230000Y-72000000D02*
G75*
G02*
X65230000Y-72000000I-2500000J0D01*
G01*
X65230000Y-72000000D02*
G75*
G02*
X70230000Y-72000000I2500000J0D01*
G01*
%TD*%
M02*
